<?xml version="1.0" encoding="UTF-8"?>
<!DOCTYPE svg PUBLIC "-//W3C//DTD SVG 1.1//EN" "http://www.w3.org/Graphics/SVG/1.1/DTD/svg11.dtd">
<!-- Creator: CorelDRAW X8 -->
<svg xmlns="http://www.w3.org/2000/svg" xml:space="preserve" width="100mm" height="100mm" version="1.1" style="shape-rendering:geometricPrecision; text-rendering:geometricPrecision; image-rendering:optimizeQuality; fill-rule:evenodd; clip-rule:evenodd"
viewBox="0 0 3600 3600"
 xmlns:xlink="http://www.w3.org/1999/xlink">
 <defs>
  <style type="text/css">
   <![CDATA[
    .fil0 {fill:#333333}
   ]]>
  </style>
 </defs>
 <g id="Layer_x0020_1">
  <metadata id="CorelCorpID_0Corel-Layer"/>
  <path class="fil0" d="M3600 600c0,-315 -284,-600 -600,-600l-2400 0c-315,0 -600,285 -600,600l0 2400c0,315 285,600 600,600l1200 0 0 -1360 -440 0 0 -600 440 0 0 -234c0,-403 303,-766 675,-766l485 0 0 600 -485 0c-53,0 -115,64 -115,161l0 239 600 0 0 600 -600 0 0 1360 640 0c316,0 600,-285 600,-600l0 -2400z"/>
 </g>
</svg>
