<?xml version="1.0" encoding="UTF-8"?>
<!DOCTYPE svg PUBLIC "-//W3C//DTD SVG 1.1//EN" "http://www.w3.org/Graphics/SVG/1.1/DTD/svg11.dtd">
<!-- Creator: CorelDRAW X8 -->
<svg xmlns="http://www.w3.org/2000/svg" xml:space="preserve" width="100mm" height="100.002mm" version="1.1" style="shape-rendering:geometricPrecision; text-rendering:geometricPrecision; image-rendering:optimizeQuality; fill-rule:evenodd; clip-rule:evenodd"
viewBox="0 0 3093 3093"
 xmlns:xlink="http://www.w3.org/1999/xlink">
 <defs>
  <style type="text/css">
   <![CDATA[
    .fil0 {fill:#333333}
   ]]>
  </style>
 </defs>
 <g id="Layer_x0020_1">
  <metadata id="CorelCorpID_0Corel-Layer"/>
  <path class="fil0" d="M2577 0l0 0c284,0 516,232 516,516l0 2061c0,284 -232,516 -516,516l-637 0c-4,-6 -8,-12 -10,-19 -18,-46 -6,-290 -6,-349 0,-131 4,-243 -72,-346 -16,-23 -11,-7 -19,-35 82,0 232,-42 296,-67 177,-71 289,-196 348,-370 66,-198 71,-459 -53,-635 -69,-96 -55,-55 -37,-163 20,-118 -13,-218 -36,-318 -91,0 -147,18 -209,45 -33,15 -55,21 -87,41 -74,44 -105,81 -163,65 -172,-45 -366,-56 -544,-28 -262,42 -125,46 -362,-66 -58,-27 -144,-57 -224,-57 -54,0 -79,302 -28,400 -14,22 -37,46 -55,71 -156,208 -124,572 5,788 44,74 113,142 190,182 117,62 246,112 387,112 -4,45 -10,26 -33,58 -26,38 -37,83 -47,125 -9,39 -5,29 -41,41 -97,32 -181,43 -273,-3 -99,-49 -112,-94 -169,-176 -54,-78 -178,-145 -272,-100 0,39 41,56 74,80 49,37 86,86 117,138 8,14 15,21 23,40 33,77 70,139 146,181 163,91 248,36 384,33 0,165 16,280 -15,332l-639 0c-284,0 -516,-232 -516,-516l0 -2061c0,-284 232,-516 516,-516l2061 0z"/>
 </g>
</svg>
