<?xml version="1.0" encoding="UTF-8"?>
<!DOCTYPE svg PUBLIC "-//W3C//DTD SVG 1.1//EN" "http://www.w3.org/Graphics/SVG/1.1/DTD/svg11.dtd">
<!-- Creator: CorelDRAW X8 -->
<svg xmlns="http://www.w3.org/2000/svg" xml:space="preserve" width="100mm" height="100mm" version="1.1" style="shape-rendering:geometricPrecision; text-rendering:geometricPrecision; image-rendering:optimizeQuality; fill-rule:evenodd; clip-rule:evenodd"
viewBox="0 0 44358 44358"
 xmlns:xlink="http://www.w3.org/1999/xlink">
 <defs>
  <style type="text/css">
   <![CDATA[
    .fil0 {fill:#333333}
   ]]>
  </style>
 </defs>
 <g id="Layer_x0020_1">
  <metadata id="CorelCorpID_0Corel-Layer"/>
  <path class="fil0" d="M39922 0l-35486 0c-2440,0 -4436,1996 -4436,4436l0 35486c0,2440 1996,4436 4436,4436l35486 0c2439,0 4436,-1996 4436,-4436l0 -35486c0,-2440 -1997,-4436 -4436,-4436zm-17743 13307l0 0c4878,0 8871,3993 8871,8872 0,4879 -3993,8871 -8871,8871 -4880,0 -8873,-3992 -8873,-8871 0,-4879 3993,-8872 8873,-8872zm-16635 26615l0 0c-666,0 -1108,-444 -1108,-1109l0 -18852 4657 0c-222,665 -222,1552 -222,2218 0,7319 5989,13307 13308,13307 7319,0 13307,-5988 13307,-13307 0,-666 0,-1553 -222,-2218l4658 0 0 18852c0,665 -445,1109 -1110,1109l-33268 0zm34378 -29942l0 0c0,666 -445,1109 -1110,1109l-4436 0c-665,0 -1108,-443 -1108,-1109l0 -4435c0,-666 443,-1109 1108,-1109l4436 0c665,0 1110,443 1110,1109l0 4435z"/>
 </g>
</svg>
