<svg version="1" xmlns="http://www.w3.org/2000/svg" width="666.667" height="666.667" viewBox="0 0 500.000000 500.000000"><path d="M235.7.6c-.1.1-3.8.4-8.2.8-29.8 2.5-59.1 10.7-86.8 24.3-11.5 5.7-30.5 16.5-31.7 18.2-.3.3-1.8 1.5-3.5 2.5-3.4 2.2-2.9 1.9-11.5 8.8-9.7 7.9-9.6 7.7-17.8 15.8-16.8 16.5-28.8 31.5-40.5 50.7C32 127.8 19 153.3 19 154.5c0 .4-.6 2.1-1.4 3.8-2.9 6.8-9.7 28-11 34.7-2.7 13.5-3.5 18-4 21-2.8 18.3-2.8 53 0 71.5 1.2 7.8 4.6 23.7 6.4 30 1.1 3.8 2.3 7.9 2.5 9.1 1.3 5.8 9.3 25.4 15.1 36.9C41.2 390.4 60 415 84 436.5c29.8 26.6 67.7 46.6 106.5 56 6.1 1.5 11.9 2.8 13 2.9 1.1.2 3.4.6 5 .9 1.7.4 5.3.9 8 1.2 2.8.3 7.5.9 10.5 1.2 11.8 1.4 47.1.6 55.9-1.1 1.2-.3 4.2-.7 6.5-1 12.5-1.5 37.2-8.3 53.6-14.8 11.4-4.5 30.2-14.2 40.9-21.1 5.3-3.4 9.8-6.4 10.1-6.7.3-.3 2.1-1.7 4-3 13.9-9.4 37-31.8 49-47.6 27.3-35.5 43-72 50.4-117.4 2.6-16 2.7-61.1.1-71-.2-.8-.6-3.5-.9-6-1.2-8.9-9.8-41.3-12.6-47-.4-.8-2.2-5.1-4.1-9.5-1.8-4.4-5.1-11.4-7.2-15.5-2.2-4.1-4.7-8.9-5.5-10.5-3.8-7.5-17.1-26.5-26.1-37.2-9.1-10.9-22.6-24.1-35.8-34.8-5.1-4.1-14.6-11-18.8-13.5-2.2-1.3-4.1-2.8-4.3-3.2-.2-.4-.8-.8-1.3-.8s-2.8-1.2-5-2.6c-9.8-6.1-40.9-20.2-48.4-21.8-.5-.2-3.9-1.2-7.5-2.3-5.9-1.9-21.7-5.5-29.5-6.7C275.4 1.3 268.8.7 251.7.5c-8.6-.1-15.8-.1-16 .1z"/></svg>