<?xml version="1.0" encoding="UTF-8"?>
<!DOCTYPE svg PUBLIC "-//W3C//DTD SVG 1.1//EN" "http://www.w3.org/Graphics/SVG/1.1/DTD/svg11.dtd">
<!-- Creator: CorelDRAW X8 -->
<svg xmlns="http://www.w3.org/2000/svg" xml:space="preserve" width="100mm" height="99.998mm" version="1.1" style="shape-rendering:geometricPrecision; text-rendering:geometricPrecision; image-rendering:optimizeQuality; fill-rule:evenodd; clip-rule:evenodd"
viewBox="0 0 1728 1728"
 xmlns:xlink="http://www.w3.org/1999/xlink">
 <defs>
  <style type="text/css">
   <![CDATA[
    .fil0 {fill:#333333}
   ]]>
  </style>
 </defs>
 <g id="Layer_x0020_1">
  <metadata id="CorelCorpID_0Corel-Layer"/>
  <path class="fil0" d="M1555 0l-1382 0c-95,0 -173,78 -173,173l0 1382c0,95 78,173 173,173l1382 0c95,0 173,-78 173,-173l0 -1382c0,-95 -78,-173 -173,-173zm-199 631l0 0c-8,397 -259,674 -639,691 -155,9 -268,-43 -371,-104 112,18 259,-26 337,-95 -113,-8 -182,-69 -216,-164 34,9 69,0 95,0 -104,-35 -173,-95 -182,-233 26,17 61,26 95,26 -78,-44 -129,-208 -69,-311 112,121 251,224 475,242 -60,-242 268,-372 398,-208 60,-8 103,-34 147,-52 -18,61 -52,95 -95,130 43,-9 86,-17 121,-35 -9,44 -52,78 -96,113z"/>
 </g>
</svg>
