<svg id="Layer_1" data-name="Layer 1" xmlns="http://www.w3.org/2000/svg" viewBox="0 0 483.32 483.32"><defs><style>.cls-1{fill:#d91f26;}</style></defs><path class="cls-1" d="M531.67,290.07h-7.6a.85.85,0,0,1-.84-.84v-7.65A.79.79,0,0,0,523,281l-14.41-14.42a.87.87,0,0,0-.59-.24h-7.66a.83.83,0,0,1-.83-.83v-7.61a.83.83,0,0,0-.83-.83h-4.49a.84.84,0,0,0-.84.83v7.61a.83.83,0,0,1-.83.83h-7.66a.83.83,0,0,0-.58.24L469.85,281a.83.83,0,0,0-.24.59v7.65a.84.84,0,0,1-.83.84h-7.61a.83.83,0,0,0-.83.83v4.49a.83.83,0,0,0,.83.83h7.61a.83.83,0,0,1,.83.83v7.66a.87.87,0,0,0,.24.59l14.42,14.41a.78.78,0,0,0,.58.24h7.66a.84.84,0,0,1,.83.84v7.6a.84.84,0,0,0,.84.83h4.49a.83.83,0,0,0,.83-.83v-7.6a.84.84,0,0,1,.83-.84H508a.82.82,0,0,0,.59-.24L523,305.3a.82.82,0,0,0,.24-.59v-7.66a.84.84,0,0,1,.84-.83h7.6a.83.83,0,0,0,.83-.83V290.9A.83.83,0,0,0,531.67,290.07Zm-14.83,12.68L506,313.56a.87.87,0,0,1-.59.24h-5.11a.83.83,0,0,1-.83-.83v-7.6a.84.84,0,0,0-.83-.84h-4.49a.85.85,0,0,0-.84.84V313a.83.83,0,0,1-.83.83H487.4a.83.83,0,0,1-.58-.24L476,302.75a.83.83,0,0,1-.25-.59v-5.11a.84.84,0,0,1,.84-.83h7.6a.83.83,0,0,0,.83-.83V290.9a.83.83,0,0,0-.83-.83h-7.6a.85.85,0,0,1-.84-.84v-5.11a.79.79,0,0,1,.25-.58l10.81-10.81a.79.79,0,0,1,.58-.25h5.11a.84.84,0,0,1,.83.84v7.6a.84.84,0,0,0,.84.83h4.49a.83.83,0,0,0,.83-.83v-7.6a.84.84,0,0,1,.83-.84h5.11a.83.83,0,0,1,.59.25l10.81,10.81a.83.83,0,0,1,.24.58v5.11a.84.84,0,0,1-.83.84h-7.6a.84.84,0,0,0-.84.83v4.49a.84.84,0,0,0,.84.83h7.6a.83.83,0,0,1,.83.83v5.11A.87.87,0,0,1,516.84,302.75Z" transform="translate(-179.29 -55.98)"/><path class="cls-1" d="M205.74,260.84H182.06a2.77,2.77,0,0,1-2.77-2.77V189.84a2.76,2.76,0,0,1,.81-2L311.19,56.79a2.74,2.74,0,0,1,1.95-.81h68.24a2.77,2.77,0,0,1,2.77,2.77V82.44a2.77,2.77,0,0,1-2.77,2.77H325.25a2.78,2.78,0,0,0-2,.81l-114,114a2.79,2.79,0,0,0-.82,2v56.13A2.77,2.77,0,0,1,205.74,260.84Z" transform="translate(-179.29 -55.98)"/><path class="cls-1" d="M659.83,260.84H636.15a2.77,2.77,0,0,1-2.77-2.77V201.94a2.79,2.79,0,0,0-.82-2L518.6,86a2.78,2.78,0,0,0-2-.81H460.51a2.77,2.77,0,0,1-2.77-2.77V58.75A2.77,2.77,0,0,1,460.51,56h68.24a2.74,2.74,0,0,1,2,.81L661.79,187.88a2.76,2.76,0,0,1,.81,2v68.23A2.77,2.77,0,0,1,659.83,260.84Z" transform="translate(-179.29 -55.98)"/><path class="cls-1" d="M528.75,539.3H460.51a2.77,2.77,0,0,1-2.77-2.77V512.84a2.77,2.77,0,0,1,2.77-2.77h56.13a2.78,2.78,0,0,0,2-.81l114-114a2.77,2.77,0,0,0,.82-2V337.21a2.78,2.78,0,0,1,2.77-2.78h23.68a2.78,2.78,0,0,1,2.77,2.78v68.23a2.78,2.78,0,0,1-.81,2L530.7,538.48A2.75,2.75,0,0,1,528.75,539.3Z" transform="translate(-179.29 -55.98)"/><path class="cls-1" d="M381.38,539.3H313.14a2.75,2.75,0,0,1-1.95-.82L180.1,407.4a2.78,2.78,0,0,1-.81-2V337.21a2.78,2.78,0,0,1,2.77-2.78h23.68a2.78,2.78,0,0,1,2.77,2.78v56.12a2.77,2.77,0,0,0,.82,2l114,114a2.78,2.78,0,0,0,2,.81h56.13a2.77,2.77,0,0,1,2.77,2.77v23.69A2.77,2.77,0,0,1,381.38,539.3Z" transform="translate(-179.29 -55.98)"/><path class="cls-1" d="M561,262.49l-19.44-41a27,27,0,0,1-2.18-6.72l-10.88-59.38a7.21,7.21,0,0,0-4.66-5.49l-99.27-35.62a10.85,10.85,0,0,0-7.33,0L318,149.94a7.24,7.24,0,0,0-4.67,5.5l-10.88,59.38a27.35,27.35,0,0,1-2.17,6.72l-19.45,41a12.67,12.67,0,0,0-1.21,6l2.9,62.95a7.15,7.15,0,0,0,1.7,4.31l9.91,11.7a7.26,7.26,0,0,1,1.72,4.46l2.5,80.83a5.38,5.38,0,0,0,2.57,4.44l68.85,42.45a7.24,7.24,0,0,0,3.79,1.07h94.73a7.24,7.24,0,0,0,3.79-1.07l68.85-42.45a5.42,5.42,0,0,0,2.58-4.44l2.5-80.83a7.25,7.25,0,0,1,1.71-4.46l9.92-11.7a7.2,7.2,0,0,0,1.69-4.31l2.9-62.95A12.55,12.55,0,0,0,561,262.49ZM356.77,453.35a1.81,1.81,0,0,1-2.75,1.54l-45.6-28.1a3.62,3.62,0,0,1-1.71-3.07V409.46a1.8,1.8,0,0,1,2.75-1.54l45.6,28.1a3.62,3.62,0,0,1,1.71,3.07Zm0-34.53a1.8,1.8,0,0,1-2.75,1.53l-45.6-28.09a3.62,3.62,0,0,1-1.71-3.07V374.93a1.8,1.8,0,0,1,2.75-1.54l45.6,28.1a3.62,3.62,0,0,1,1.71,3.07Zm0-34.53a1.8,1.8,0,0,1-2.75,1.53l-45.6-28.1a3.59,3.59,0,0,1-1.71-3.06V340.4a1.8,1.8,0,0,1,2.75-1.54l45.6,28.1a3.61,3.61,0,0,1,1.71,3.07Zm178.37,39.43a3.6,3.6,0,0,1-1.71,3.07l-45.6,28.1a1.81,1.81,0,0,1-2.75-1.54V439.09A3.61,3.61,0,0,1,486.8,436l45.59-28.1a1.8,1.8,0,0,1,2.75,1.54Zm0-34.53a3.6,3.6,0,0,1-1.71,3.07l-45.6,28.09a1.8,1.8,0,0,1-2.75-1.53V404.56a3.61,3.61,0,0,1,1.72-3.07l45.59-28.1a1.8,1.8,0,0,1,2.75,1.54Zm0-34.53a3.57,3.57,0,0,1-1.71,3.06l-45.6,28.1a1.8,1.8,0,0,1-2.75-1.53V370A3.59,3.59,0,0,1,486.8,367l45.59-28.1a1.8,1.8,0,0,1,2.75,1.54Zm12.22-43.85a7.22,7.22,0,0,1-3.44,5.81L483,354a5.42,5.42,0,0,1-7.33-1.59l-18.2-27.12a9,9,0,0,0-4.74-3.56l-28.51-9.12a11,11,0,0,0-6.63,0l-28.51,9.12a9.06,9.06,0,0,0-4.74,3.56l-18.2,27.12a5.42,5.42,0,0,1-7.33,1.59l-60.9-37.39a7.19,7.19,0,0,1-3.43-5.81l-1.84-39.7a12.59,12.59,0,0,1,1.21-6L308,235.41a5.42,5.42,0,0,1,6.84-2.72L417,272.23a10.79,10.79,0,0,0,7.79,0L527,232.69a5.41,5.41,0,0,1,6.84,2.72L548,265.1a12.71,12.71,0,0,1,1.21,6Z" transform="translate(-179.29 -55.98)"/></svg>