<?xml version="1.0" encoding="UTF-8"?>
<!DOCTYPE svg PUBLIC "-//W3C//DTD SVG 1.1//EN" "http://www.w3.org/Graphics/SVG/1.1/DTD/svg11.dtd">
<!-- Creator: CorelDRAW 2018 (64-Bit) -->
<svg xmlns="http://www.w3.org/2000/svg" xml:space="preserve" width="5.14843in" height="5.14843in" version="1.1" style="shape-rendering:geometricPrecision; text-rendering:geometricPrecision; image-rendering:optimizeQuality; fill-rule:evenodd; clip-rule:evenodd"
viewBox="0 0 1508.21 1508.21"
 xmlns:xlink="http://www.w3.org/1999/xlink">
 <defs>
  <style type="text/css">
   <![CDATA[
    .fil1 {fill:#222222}
    .fil0 {fill:#E60D2E}
   ]]>
  </style>
 </defs>
 <g id="РЁРB0СЂ_x0020_1">
  <metadata id="CorelCorpID_0Corel-Layer"/>
  <polygon class="fil0" points="441.72,0 754.05,0 1066.48,0 1287.34,220.86 1508.21,441.72 1508.21,754.05 1508.21,1066.48 1287.34,1287.34 1066.48,1508.21 754.05,1508.21 441.72,1508.21 220.86,1287.34 -0,1066.48 -0,754.05 -0,441.72 220.86,220.86 "/>
  <path class="fil1" d="M64.7 669.85l0 -201.72 404.36 -404.24 207.94 0 0 65.62 -180.73 0 -365.84 365.84 0 174.5 -65.74 0zm768.81 -605.96l207.25 0 404.24 404.24 0 201.72 -65.74 0 0 -174.5 -365.72 -365.84 -180.03 0 0 -65.62zm611.49 762.35l0 213.6 -404.24 404.24 -207.25 0 0 -65.74 180.03 0 365.72 -365.72 0 -186.38 65.74 0zm-768 617.84l-207.94 0 -404.36 -404.24 0 -213.6 65.74 0 0 186.38 365.84 365.72 180.73 0 0 65.74z"/>
  <path class="fil1" d="M414.16 530.99l0.23 -0.58 0 -0.46c11.42,-36.79 14.88,-70.58 34.6,-181.19l307.48 -106.91 306.55 107.03c19.84,110.6 23.3,144.4 34.6,181.19l0.12 0.46 0.23 0.58c9.57,30.56 24.68,63.89 59.28,145.67l-12.69 191.34 -31.14 44.06 -11.3 219.59 -201.37 155.01 -289.37 -0.12 -201.49 -155.01 -11.19 -219.59 -31.14 -43.94 -12.8 -191.45c34.6,-81.66 49.82,-114.99 59.4,-145.67zm658.43 552.67l-124.91 78.08 1.04 29.41 0.23 5.31 122.37 -76.47 1.27 -36.33zm2.42 -64.93l-129.52 80.96 1.15 33.1 0.69 1.27 126.29 -78.89 1.38 -36.45zm2.31 -64.59l-134.13 83.73 1.27 33.45 0.58 1.04 130.9 -81.89 1.38 -36.33zm1.73 -65.86l-138.17 86.27 1.27 34.83 136.21 -85.12 1.27 -34.95 -0.58 -1.04zm-639.4 195.37l125.02 78.08 -1.15 29.41 -0.12 5.31 -122.48 -76.47 -1.27 -36.33zm-2.31 -64.93l129.52 80.96 -1.15 33.1 -0.81 1.27 -126.29 -78.89 -1.27 -36.45zm-2.31 -64.59l134.02 83.73 -1.15 33.45 -0.69 1.04 -130.9 -81.89 -1.27 -36.33zm-1.73 -65.86l138.05 86.27 -1.27 34.83 -136.21 -85.12 -1.27 -34.95 0.69 -1.04zm323.74 -187.42l317.86 -124.21c15.34,34.72 30.79,69.31 46.02,104.03 -3.58,44.75 -7.15,89.5 -10.84,134.25 -63.32,39.79 -126.98,79.12 -190.41,118.56l-67.47 -93.19 -96.19 -33.56 -96.19 33.45 -67.59 93.19c-63.43,-39.44 -127.1,-78.77 -190.3,-118.56 -3.69,-44.75 -7.27,-89.5 -10.84,-134.25 15.22,-34.72 30.56,-69.31 45.9,-104.03l320.05 124.33z"/>
  <g id="_1974615011504">
   <polygon class="fil1" points="971.91,650.48 971.91,695.34 958.76,695.34 958.76,650.48 "/>
   <polygon class="fil1" points="971.91,798.45 971.91,843.31 958.76,843.31 958.76,798.45 "/>
   <polygon class="fil1" points="868.8,740.32 913.78,740.32 913.78,753.47 868.8,753.47 "/>
   <polygon class="fil1" points="1016.77,740.32 1061.75,740.32 1061.75,753.47 1016.77,753.47 "/>
   <polygon class="fil1" points="884.72,730.52 884.72,713.56 931.89,666.28 948.61,666.28 948.61,679.43 937.42,679.43 897.87,718.98 897.87,730.52 "/>
   <polygon class="fil1" points="948.96,827.4 931.89,827.4 884.72,780.23 884.72,763.5 897.87,763.5 897.87,774.81 937.31,814.25 948.96,814.25 "/>
   <polygon class="fil1" points="1046.53,763.27 1046.53,780.34 999.24,827.51 982.52,827.51 982.52,814.48 993.82,814.48 1033.38,774.92 1033.38,763.27 "/>
   <polygon class="fil1" points="982.06,665.93 999.13,665.93 1046.3,713.1 1046.3,729.83 1033.15,729.83 1033.15,718.64 993.71,679.08 982.06,679.08 "/>
  </g>
 </g>
</svg>
