<?xml version="1.0" encoding="UTF-8"?>
<!DOCTYPE svg PUBLIC "-//W3C//DTD SVG 1.1//EN" "http://www.w3.org/Graphics/SVG/1.1/DTD/svg11.dtd">
<!-- Creator: CorelDRAW 2018 (64-Bit) -->
<svg xmlns="http://www.w3.org/2000/svg" xml:space="preserve" width="7.15039in" height="8.90591in" version="1.1" style="shape-rendering:geometricPrecision; text-rendering:geometricPrecision; image-rendering:optimizeQuality; fill-rule:evenodd; clip-rule:evenodd"
viewBox="0 0 3336.47 4155.61"
 xmlns:xlink="http://www.w3.org/1999/xlink">
 <defs>
  <style type="text/css">
   <![CDATA[
    .fil1 {fill:#222222}
    .fil0 {fill:#222222;fill-rule:nonzero}
   ]]>
  </style>
 </defs>
 <g id="Layer_x0020_1">
  <metadata id="CorelCorpID_0Corel-Layer"/>
  <g id="_2187183232528">
   <g>
    <path class="fil0" d="M44.46 1424.09l0 -473.96 949.94 -950.13 488.84 0 0 154.5 -424.91 0 -859.56 859.56 0 410.03 -154.31 0zm1806.38 -1424.09l487 0 949.94 950.13 0 473.96 -154.31 0 0 -410.03 -859.56 -859.56 -423.07 0 0 -154.5zm1436.95 1791.68l0 501.88 -949.94 949.94 -487 0 0 -154.5 423.07 0 859.56 -859.38 0 -437.95 154.31 0zm-1804.54 1451.83l-488.84 0 -949.94 -949.94 0 -501.88 154.31 0 0 437.95 859.56 859.38 424.91 0 0 154.5z"/>
    <path class="fil1" d="M865.44 1097.83l0.55 -1.29 0.18 -1.1c26.64,-86.53 34.72,-165.89 81.2,-425.83l722.33 -251.13 720.68 251.31c46.29,259.94 54.56,339.3 81.2,426.01l0.18 0.92 0.55 1.29c22.41,72.01 58.05,150.27 139.43,342.24l-29.94 449.9 -73.3 103.43 -26.27 516.03 -473.41 364.11 -679.9 -0.18 -473.41 -364.11 -26.27 -516.03 -73.3 -103.43 -29.94 -449.71c81.38,-192.16 117.02,-270.42 139.43,-342.43zm1547.36 1298.62l-293.56 183.52 2.39 69.26 0.55 12.49 287.68 -179.85 2.94 -85.42zm5.51 -152.29l-304.4 190.14 2.94 77.89 1.65 2.76 296.87 -185.36 2.94 -85.42zm5.51 -151.92l-315.06 196.93 2.76 78.44 1.47 2.39 307.71 -192.34 3.12 -85.42zm4.04 -154.68l-324.42 202.63 2.94 81.75 320.02 -199.87 2.94 -82.12 -1.47 -2.39zm-1502.53 458.9l293.75 183.52 -2.57 69.26 -0.37 12.49 -287.68 -179.85 -3.12 -85.42zm-5.51 -152.29l304.4 190.14 -2.76 77.89 -1.65 2.76 -296.87 -185.36 -3.12 -85.42zm-5.33 -151.92l315.06 196.93 -2.94 78.44 -1.47 2.39 -307.71 -192.34 -2.94 -85.42zm-4.04 -154.68l324.42 202.63 -2.94 81.75 -320.02 -199.87 -2.94 -82.12 1.47 -2.39zm760.91 -440.53l746.95 -291.73c36.01,81.38 72.2,162.76 108.02,244.33 -8.45,105.08 -16.9,210.34 -25.54,315.42 -148.8,93.51 -298.15,185.91 -447.32,278.68l-158.72 -218.98 -225.96 -78.99 -226.14 78.63 -158.72 219.16c-148.99,-92.77 -298.52,-185.36 -447.14,-278.87 -8.82,-105.08 -17.08,-210.16 -25.72,-315.24 36.01,-81.57 72.01,-163.13 108.2,-244.51l752.09 292.09z"/>
    <polygon class="fil0" points="2176,1378.53 2176,1483.98 2145.13,1483.98 2145.13,1378.53 "/>
    <polygon class="fil0" points="2176,1726.28 2176,1831.73 2145.13,1831.73 2145.13,1726.28 "/>
    <polygon class="fil0" points="1933.87,1589.79 2039.5,1589.79 2039.5,1620.65 1933.87,1620.65 "/>
    <polygon class="fil0" points="2281.63,1589.79 2387.26,1589.79 2387.26,1620.65 2281.63,1620.65 "/>
    <polygon class="fil0" points="1971.35,1566.83 1971.35,1526.78 2082.12,1415.82 2121.44,1415.82 2121.44,1446.68 2094.98,1446.68 2002.21,1539.46 2002.21,1566.83 "/>
    <polygon class="fil0" points="2122.17,1794.44 2082.12,1794.44 1971.35,1683.48 1971.35,1644.35 2002.21,1644.35 2002.21,1670.81 2094.98,1763.58 2122.17,1763.58 "/>
    <polygon class="fil0" points="2351.44,1643.8 2351.44,1683.85 2240.48,1794.81 2201.16,1794.81 2201.16,1763.94 2227.62,1763.94 2320.57,1670.99 2320.57,1643.8 "/>
    <polygon class="fil0" points="2200.06,1414.9 2240.11,1414.9 2351.07,1525.86 2351.07,1565.17 2320.02,1565.17 2320.02,1538.72 2227.25,1445.77 2200.06,1445.77 "/>
   </g>
   <path class="fil0" d="M309.54 4114.09c-18.55,15.06 -38.21,25.54 -58.97,31.96 -20.76,6.25 -43.17,9.55 -67.05,9.55 -28.47,0 -54.19,-5.88 -76.79,-17.27 -22.78,-11.57 -41.88,-27.19 -57.87,-46.85 -15.8,-19.66 -27.92,-42.8 -36.19,-69.07 -8.45,-26.45 -12.68,-54.38 -12.68,-84.14 0,-27.74 3.67,-54.19 11.39,-79.36 7.53,-24.98 19.11,-47.03 34.72,-65.95 15.43,-18.92 35.09,-33.8 58.97,-44.82 23.7,-11.02 51.81,-16.53 84.32,-16.53 23.7,0 46.48,4.04 68.15,12.12 21.68,8.27 40.6,20.21 56.77,35.64l-40.97 48.13c-6.06,-4.04 -12.49,-7.9 -19.11,-11.57 -6.61,-3.67 -13.23,-6.98 -20.21,-9.74 -6.98,-2.76 -13.78,-4.96 -20.58,-6.61 -6.98,-1.65 -13.41,-2.57 -19.66,-2.57 -17.64,0 -32.33,3.67 -44.64,11.21 -12.31,7.53 -22.23,17.64 -30.13,30.31 -7.72,12.86 -13.23,27.74 -16.9,44.82 -3.49,17.08 -5.33,35.09 -5.33,54.19 0,11.21 0.73,22.78 2.39,34.54 1.47,11.94 3.86,23.51 7.16,34.9 3.12,11.39 7.35,22.04 12.31,31.96 5.14,9.92 11.21,18.74 18,26.27 6.98,7.53 14.88,13.59 23.7,18 8.82,4.41 18.74,6.61 29.76,6.61 6.25,0 12.49,-0.55 18.55,-1.65 6.06,-0.92 12.49,-2.57 19.29,-4.96 6.61,-2.2 13.96,-5.33 21.86,-9 7.9,-3.86 16.9,-8.45 26.82,-13.96l32.88 53.83zm203.55 41.52c-30.86,0 -58.42,-5.33 -83.04,-15.98 -24.43,-10.65 -45.19,-25.54 -62.46,-44.46 -17.08,-18.92 -30.13,-41.33 -39.31,-67.24 -9.19,-25.9 -13.78,-54.01 -13.78,-84.32 0,-30.5 4.41,-58.6 13.41,-84.5 8.82,-25.9 21.68,-48.31 38.58,-67.24 16.9,-18.92 37.48,-33.62 62.28,-44.27 24.62,-10.65 52.72,-15.98 84.32,-15.98 30.68,0 58.42,5.33 82.85,15.98 24.62,10.65 45.38,25.35 62.46,44.27 17.08,18.92 30.13,41.33 39.31,67.24 9,25.9 13.59,54.01 13.59,84.5 0,30.31 -4.41,58.42 -13.23,84.32 -9,25.9 -21.68,48.31 -38.58,67.24 -16.9,18.92 -37.66,33.8 -62.28,44.46 -24.62,10.65 -52.72,15.98 -84.14,15.98zm101.77 -204.1c0,-19.47 -1.84,-38.39 -5.69,-56.58 -3.67,-18.19 -9.55,-34.35 -17.82,-48.31 -8.27,-14.15 -19.11,-25.35 -32.15,-33.8 -13.04,-8.45 -29.03,-12.68 -47.76,-12.68 -17.82,0 -32.88,3.67 -45.74,11.02 -12.68,7.53 -22.96,17.45 -31.23,29.94 -8.08,12.49 -13.96,26.82 -17.64,42.99 -3.86,16.35 -5.69,33.07 -5.69,50.34 0,19.84 1.84,38.95 5.69,57.32 3.67,18.37 9.74,34.54 18,48.68 8.27,14.15 18.92,25.35 32.15,33.99 13.04,8.45 28.84,12.68 47.4,12.68 17.82,0 32.88,-3.86 45.56,-11.57 12.68,-7.72 23.15,-17.82 31.23,-30.31 8.27,-12.68 14.15,-27 18,-43.35 3.86,-16.17 5.69,-32.88 5.69,-50.34zm490.68 -222.65l0 421.97 -87.44 0 -115.55 -193.44 -40.97 -93.51 -1.65 0.37 10.65 95.71 0 190.87 -94.61 0 0 -349.04 -9.19 -63.93 98.47 -8.27 117.57 197.48 41.15 99.75 1.65 -0.37 -13.23 -101.22 0 -187.01 93.14 -9.37zm179.85 109.67l0 90.75 17.82 0c12.31,0 22.96,-2.02 32.15,-6.06 9.19,-4.04 16.72,-9.19 22.78,-15.8 5.88,-6.61 10.29,-14.51 13.23,-23.33 2.94,-8.82 4.41,-18.19 4.41,-27.92 0,-12.86 -2.02,-23.51 -6.43,-31.96 -4.23,-8.45 -9.92,-15.43 -16.72,-20.39 -6.8,-5.14 -14.51,-8.63 -22.96,-10.65 -8.63,-2.02 -17.08,-2.94 -25.35,-2.94 -3.67,0 -6.8,0 -9,0 -2.2,0 -4.04,0 -5.51,0 -1.65,0 -3.12,0 -4.41,0 -1.47,0.18 -2.94,0.37 -4.59,0.55l4.59 47.76zm13.04 156.52c-2.02,-2.57 -4.41,-4.23 -6.98,-4.59 -2.57,-0.55 -4.59,-0.73 -6.06,-0.73l0 161.11 -97.18 0 0 -348.86 -10.65 -60.81c8.45,-0.92 17.82,-1.84 28.29,-2.94 10.47,-0.92 21.13,-1.84 31.96,-2.57 11.02,-0.73 21.68,-1.29 32.15,-1.84 10.29,-0.37 19.47,-0.55 27.56,-0.55 25.35,0 48.31,2.39 69.07,7.53 20.76,4.96 38.58,12.49 53.46,22.6 14.7,10.1 26.27,22.6 34.54,37.29 8.08,14.88 12.12,31.96 12.12,51.44 0,19.84 -2.94,36.92 -9.19,51.25 -6.06,14.15 -14.51,26.45 -24.98,36.37 -10.47,10.1 -22.6,18.37 -36.37,24.8 -13.78,6.43 -28.11,11.76 -42.99,15.8l38.76 9.19 120.51 161.29 -101.77 0 -112.24 -155.78zm515.48 92.77l-7.35 63.01 -264.54 0 4.59 -63.75 0 -285.3 -9.55 -65.58 266.74 0 0 63.01 -164.23 0 4.23 38.21 0 60.26 141.64 0 0 58.97 -141.64 0 0 94.79 -2.39 36.37 172.5 0zm33.25 63.01l110.04 -354.92 9.74 -58.05 104.34 -8.45 132.45 421.42 -94.42 0 -32.15 -117.94 -108.39 0 -31.23 117.94 -90.38 0zm175.81 -376.23l-14.7 102.69 -23.15 94.98 75.69 0 -23.51 -94.98 -14.33 -102.69zm309.91 313.22l171.21 0 -7.53 63.01 -264.9 0 6.43 -64.11 0 -284.93 -9.37 -63.93 106.37 -8.45 0 322.04 -2.2 36.37zm206.85 63.01l0 -349.04 -9.19 -63.93 106.37 -8.45 0 421.42 -97.18 0zm247.82 0l0 -351.61 -108.75 0 0 -63.01 313.77 0 0 63.01 -107.84 0 0 351.61 -97.18 0zm360.25 -315.97l29.58 102.32 16.17 -102.32 50.15 -98.65 92.77 0 -119.78 234.96 0 179.66 -97 0 0 -179.66 -118.67 -232.76 93.69 -9 53.09 105.45z"/>
  </g>
 </g>
</svg>
