<?xml version="1.0" encoding="UTF-8"?>
<!DOCTYPE svg PUBLIC "-//W3C//DTD SVG 1.1//EN" "http://www.w3.org/Graphics/SVG/1.1/DTD/svg11.dtd">
<!-- Creator: CorelDRAW 2018 (64-Bit) -->
<svg xmlns="http://www.w3.org/2000/svg" xml:space="preserve" width="2000px" height="2000px" version="1.1" style="shape-rendering:geometricPrecision; text-rendering:geometricPrecision; image-rendering:optimizeQuality; fill-rule:evenodd; clip-rule:evenodd"
viewBox="0 0 21937000 21937000"
 xmlns:xlink="http://www.w3.org/1999/xlink">
 <defs>
  <style type="text/css">
   <![CDATA[
    .fil0 {fill:#222222;fill-rule:nonzero}
   ]]>
  </style>
 </defs>
 <g id="Layer_x0020_1">
  <metadata id="CorelCorpID_0Corel-Layer"/>
  <path class="fil0" d="M16678000 11691000c-2000,40000 -24000,77000 -59000,99000l-2931000 1799000c-56000,34000 -130000,18000 -167000,-37000l-947000 -1410000c-16000,-23000 -39000,-41000 -65000,-49000l-1454000 -465000c-56000,-18000 -117000,-18000 -173000,0l-1453000 465000c-27000,8000 -50000,26000 -65000,49000l-947000 1410000c-37000,55000 -111000,71000 -168000,37000l-2931000 -1799000c-34000,-22000 -56000,-59000 -58000,-99000l-112000 -2059000c-1000,-21000 3000,-41000 12000,-60000l731000 -1529000c28000,-59000 96000,-86000 156000,-63000l4819000 1864000c66000,26000 139000,26000 205000,0l4819000 -1864000c60000,-23000 129000,4000 157000,63000l730000 1529000c9000,19000 14000,39000 13000,60000l-112000 2059000zm-7505000 10246000l-3097000 0c-34000,0 -65000,-13000 -89000,-37000l-5950000 -5949000c-24000,-24000 -37000,-56000 -37000,-89000l0 -3097000c0,-70000 56000,-126000 126000,-126000l1075000 0c69000,0 126000,56000 126000,126000l0 2547000c0,33000 13000,66000 37000,89000l5172000 5173000c24000,23000 56000,37000 89000,37000l2548000 0c69000,0 126000,56000 126000,125000l0 1076000c0,69000 -57000,125000 -126000,125000zm6689000 0l-3097000 0c-70000,0 -126000,-56000 -126000,-125000l0 -1076000c0,-69000 56000,-125000 126000,-125000l2547000 0c34000,0 66000,-14000 89000,-37000l5173000 -5173000c23000,-23000 37000,-56000 37000,-89000l0 -2547000c0,-70000 56000,-126000 125000,-126000l1076000 0c69000,0 125000,56000 125000,126000l0 3097000c0,33000 -13000,65000 -36000,89000l-5950000 5949000c-24000,24000 -56000,37000 -89000,37000zm5950000 -12639000l-1076000 0c-69000,0 -125000,-56000 -125000,-125000l0 -2548000c0,-33000 -14000,-65000 -37000,-89000l-5173000 -5173000c-23000,-23000 -55000,-36000 -89000,-36000l-2547000 0c-70000,0 -126000,-57000 -126000,-126000l0 -1075000c0,-70000 56000,-126000 126000,-126000l3097000 0c33000,0 65000,13000 89000,37000l5950000 5950000c23000,23000 36000,55000 36000,89000l0 3097000c0,69000 -56000,125000 -125000,125000zm-20611000 0l-1075000 0c-70000,0 -126000,-56000 -126000,-125000l0 -3097000c0,-34000 13000,-66000 37000,-89000l5950000 -5950000c23000,-24000 55000,-37000 89000,-37000l3097000 0c69000,0 126000,56000 126000,126000l0 1075000c0,69000 -57000,126000 -126000,126000l-2548000 0c-33000,0 -65000,13000 -89000,36000l-5172000 5173000c-24000,24000 -37000,56000 -37000,89000l0 2548000c0,69000 -57000,125000 -126000,125000zm14120000 1903000l-490000 490000c-8000,7000 -17000,11000 -27000,11000l-232000 0c-21000,0 -38000,-17000 -38000,-38000l0 -345000c0,-20000 -17000,-37000 -38000,-37000l-203000 0c-21000,0 -38000,17000 -38000,37000l0 345000c0,21000 -17000,38000 -38000,38000l-232000 0c-10000,0 -19000,-4000 -26000,-11000l-491000 -490000c-7000,-7000 -11000,-17000 -11000,-27000l0 -232000c0,-21000 17000,-38000 38000,-38000l345000 0c21000,0 38000,-17000 38000,-38000l0 -203000c0,-21000 -17000,-38000 -38000,-38000l-345000 0c-21000,0 -38000,-17000 -38000,-38000l0 -232000c0,-10000 4000,-19000 11000,-26000l491000 -491000c7000,-7000 16000,-11000 26000,-11000l232000 0c21000,0 38000,17000 38000,38000l0 345000c0,21000 17000,38000 38000,38000l203000 0c21000,0 38000,-17000 38000,-38000l0 -345000c0,-21000 17000,-38000 38000,-38000l232000 0c10000,0 19000,4000 27000,11000l490000 491000c7000,7000 11000,16000 11000,26000l0 232000c0,21000 -17000,38000 -37000,38000l-345000 0c-21000,0 -38000,17000 -38000,38000l0 203000c0,21000 17000,38000 38000,38000l345000 0c20000,0 37000,17000 37000,38000l0 232000c0,10000 -4000,20000 -11000,27000zm673000 -576000l-345000 0c-21000,0 -37000,-17000 -37000,-38000l0 -347000c0,-10000 -5000,-20000 -12000,-27000l-654000 -654000c-7000,-8000 -16000,-11000 -26000,-11000l-348000 0c-21000,0 -38000,-18000 -38000,-38000l0 -345000c0,-21000 -17000,-38000 -38000,-38000l-203000 0c-21000,0 -38000,17000 -38000,38000l0 345000c0,20000 -17000,38000 -38000,38000l-347000 0c-11000,0 -20000,3000 -27000,11000l-654000 654000c-7000,7000 -11000,17000 -11000,27000l0 347000c0,21000 -17000,38000 -38000,38000l-345000 0c-21000,0 -38000,17000 -38000,38000l0 203000c0,21000 17000,38000 38000,38000l345000 0c21000,0 38000,17000 38000,38000l0 348000c0,10000 4000,19000 11000,26000l654000 655000c7000,7000 16000,11000 27000,11000l347000 0c21000,0 38000,16000 38000,38000l0 344000c0,21000 17000,38000 38000,38000l203000 0c21000,0 38000,-17000 38000,-38000l0 -344000c0,-22000 17000,-38000 38000,-38000l348000 0c10000,0 19000,-4000 26000,-11000l654000 -655000c7000,-7000 12000,-16000 12000,-26000l0 -348000c0,-21000 16000,-38000 37000,-38000l345000 0c21000,0 38000,-17000 38000,-38000l0 -203000c0,-21000 -17000,-38000 -38000,-38000zm160000 2965000c0,41000 -21000,80000 -55000,103000l-2099000 1410000c-51000,33000 -118000,-3000 -118000,-63000l0 -677000c0,-41000 20000,-79000 54000,-103000l2134000 -1432000c36000,-24000 84000,1000 84000,44000l0 718000zm0 1476000c0,42000 -21000,80000 -55000,103000l-2097000 1408000c-51000,35000 -120000,-2000 -120000,-64000l0 -673000c0,-41000 20000,-80000 54000,-103000l2131000 -1431000c37000,-25000 87000,2000 87000,46000l0 714000zm0 1477000c0,41000 -21000,80000 -55000,102000l-2097000 1408000c-51000,35000 -120000,-2000 -120000,-64000l0 -673000c0,-41000 20000,-80000 54000,-103000l2131000 -1431000c37000,-25000 87000,2000 87000,47000l0 714000zm-8098000 -1503000c0,60000 -68000,96000 -118000,63000l-2099000 -1410000c-35000,-23000 -55000,-62000 -55000,-103000l0 -718000c0,-43000 48000,-68000 83000,-44000l2134000 1432000c34000,24000 55000,62000 55000,103000l0 677000zm0 1473000c0,62000 -69000,99000 -121000,64000l-2096000 -1408000c-35000,-23000 -55000,-61000 -55000,-103000l0 -714000c0,-44000 49000,-71000 86000,-46000l2131000 1431000c34000,23000 55000,62000 55000,103000l0 673000zm0 1476000c0,62000 -69000,99000 -121000,64000l-2096000 -1408000c-35000,-22000 -55000,-61000 -55000,-102000l0 -714000c0,-45000 49000,-72000 86000,-47000l2131000 1431000c34000,23000 55000,62000 55000,103000l0 673000zm9321000 -8514000l-994000 -2092000c-4000,-9000 -8000,-20000 -10000,-30000l-541000 -2954000c-8000,-44000 -38000,-79000 -80000,-94000l-4687000 -1682000c-62000,-23000 -130000,-23000 -192000,0l-4688000 1682000c-41000,15000 -71000,50000 -80000,94000l-541000 2954000c-2000,10000 -5000,21000 -10000,30000l-993000 2092000c-9000,18000 -13000,38000 -12000,58000l140000 3039000c1000,27000 11000,53000 29000,74000l541000 638000c18000,22000 29000,48000 29000,76000l116000 3742000c1000,36000 18000,70000 46000,93000l3057000 2055000c22000,18000 50000,28000 78000,28000l2384000 0 2384000 0c28000,0 55000,-10000 77000,-28000l3057000 -2055000c28000,-23000 45000,-57000 46000,-93000l116000 -3742000c1000,-28000 11000,-54000 29000,-76000l541000 -638000c18000,-21000 28000,-47000 30000,-74000l139000 -3039000c1000,-20000 -3000,-40000 -11000,-58000z"/>
 </g>
</svg>
