<?xml version="1.0" encoding="UTF-8"?>
<!DOCTYPE svg PUBLIC "-//W3C//DTD SVG 1.1//EN" "http://www.w3.org/Graphics/SVG/1.1/DTD/svg11.dtd">
<!-- Creator: CorelDRAW 2018 (64-Bit) -->
<svg xmlns="http://www.w3.org/2000/svg" xml:space="preserve" width="5.18704in" height="5.18704in" version="1.1" style="shape-rendering:geometricPrecision; text-rendering:geometricPrecision; image-rendering:optimizeQuality; fill-rule:evenodd; clip-rule:evenodd"
viewBox="0 0 459.27 459.27"
 xmlns:xlink="http://www.w3.org/1999/xlink">
 <defs>
  <style type="text/css">
   <![CDATA[
    .fil0 {fill:#222222}
    .fil1 {fill:#222222;fill-rule:nonzero}
   ]]>
  </style>
 </defs>
 <g id="Layer_x0020_1">
  <metadata id="CorelCorpID_0Corel-Layer"/>
  <g id="_2187025810304">
   <path class="fil0" d="M-0 201.71l0 -67.15 134.57 -134.57 69.17 0 0 21.95 -60.16 0 -121.71 121.71 0 58.05 -21.86 0zm255.81 -201.71l68.98 0 134.47 134.57 0 67.15 -21.86 0 0 -58.05 -121.71 -121.71 -59.89 0 0 -21.95zm203.46 253.7l0 71.09 -134.47 134.47 -68.98 0 0 -21.86 59.89 0 121.71 -121.71 0 -62 21.86 0zm-255.54 205.57l-69.17 0 -134.57 -134.47 0 -71.09 21.86 0 0 62 121.71 121.71 60.16 0 0 21.86z"/>
   <path class="fil0" d="M116.29 155.51l0.09 -0.18 0 -0.18c3.77,-12.22 4.96,-23.51 11.48,-60.26l102.33 -35.64 102.05 35.64c6.52,36.83 7.72,48.04 11.48,60.26l0 0.18 0.09 0.18c3.21,10.2 8.27,21.31 19.75,48.5l-4.23 63.65 -10.38 14.6 -3.77 73.12 -66.96 51.53 -96.26 0 -67.05 -51.53 -3.77 -73.12 -10.38 -14.6 -4.23 -63.75c11.57,-27.19 16.53,-38.21 19.75,-48.41zm219.16 183.89l-41.61 25.99 0.37 9.74 0 1.75 40.78 -25.44 0.46 -12.03zm0.73 -21.59l-43.08 26.91 0.37 11.02 0.28 0.37 41.98 -26.27 0.46 -12.03zm0.73 -21.49l-44.55 27.83 0.37 11.11 0.18 0.37 43.63 -27.28 0.37 -12.03zm0.64 -21.95l-46.02 28.75 0.46 11.57 45.28 -28.38 0.46 -11.57 -0.18 -0.37zm-212.83 65.03l41.61 25.99 -0.37 9.74 0 1.75 -40.78 -25.44 -0.46 -12.03zm-0.73 -21.59l43.08 26.91 -0.37 11.02 -0.28 0.37 -41.98 -26.27 -0.46 -12.03zm-0.73 -21.49l44.55 27.83 -0.37 11.11 -0.18 0.37 -43.63 -27.28 -0.37 -12.03zm-0.64 -21.95l46.02 28.75 -0.46 11.57 -45.28 -28.38 -0.46 -11.57 0.18 -0.37zm107.74 -62.37l105.82 -41.33c5.05,11.57 10.2,23.06 15.25,34.63 -1.19,14.88 -2.3,29.76 -3.58,44.64 -21.03,13.23 -42.25,26.36 -63.29,39.5l-22.5 -31.05 -32.06 -11.11 -31.97 11.11 -22.5 31.05c-21.03,-13.23 -42.25,-26.27 -63.29,-39.5 -1.29,-14.88 -2.48,-29.76 -3.67,-44.64 5.14,-11.57 10.2,-23.15 15.34,-34.63l106.46 41.33z"/>
   <polygon class="fil1" points="301.83,195.19 301.83,210.16 297.51,210.16 297.51,195.19 "/>
   <polygon class="fil1" points="301.83,244.42 301.83,259.4 297.51,259.4 297.51,244.42 "/>
   <polygon class="fil1" points="267.57,225.13 282.54,225.13 282.54,229.54 267.57,229.54 "/>
   <polygon class="fil1" points="316.8,225.13 331.78,225.13 331.78,229.54 316.8,229.54 "/>
   <polygon class="fil1" points="272.9,221.92 272.9,216.22 288.6,200.52 294.12,200.52 294.12,204.93 290.44,204.93 277.22,218.06 277.22,221.92 "/>
   <polygon class="fil1" points="294.3,254.16 288.6,254.16 272.9,238.45 272.9,232.85 277.22,232.85 277.22,236.62 290.35,249.75 294.3,249.75 "/>
   <polygon class="fil1" points="326.72,232.76 326.72,238.45 311.02,254.16 305.41,254.16 305.41,249.75 309.18,249.75 322.32,236.62 322.32,232.76 "/>
   <polygon class="fil1" points="305.23,200.43 310.93,200.43 326.63,216.13 326.63,221.64 322.32,221.64 322.32,217.88 309.09,204.74 305.23,204.74 "/>
  </g>
 </g>
</svg>
