<?xml version="1.0" encoding="UTF-8"?>
<!DOCTYPE svg PUBLIC "-//W3C//DTD SVG 1.1//EN" "http://www.w3.org/Graphics/SVG/1.1/DTD/svg11.dtd">
<!-- Creator: CorelDRAW 2018 (64-Bit) -->
<svg xmlns="http://www.w3.org/2000/svg" xml:space="preserve" width="4000px" height="2851px" version="1.1" style="shape-rendering:geometricPrecision; text-rendering:geometricPrecision; image-rendering:optimizeQuality; fill-rule:evenodd; clip-rule:evenodd"
viewBox="0 0 46224000 32948000"
 xmlns:xlink="http://www.w3.org/1999/xlink">
 <defs>
  <style type="text/css">
   <![CDATA[
    .fil0 {fill:#222222;fill-rule:nonzero}
    .fil1 {fill:#E60D2E;fill-rule:nonzero}
   ]]>
  </style>
 </defs>
 <g id="Layer_x0020_1">
  <metadata id="CorelCorpID_0Corel-Layer"/>
  <g id="_2508148441264">
   <path class="fil0" d="M4860000 26969000l-3504000 0c-122000,0 -183000,44000 -183000,131000l0 968000c0,91000 61000,134000 183000,134000l3516000 0 0 724000 -3719000 0c-656000,0 -982000,-218000 -982000,-657000l0 -1370000c0,-435000 326000,-652000 982000,-652000l3707000 0 0 722000zm41331000 5978000l-1160000 0c-485000,0 -738000,-121000 -962000,-396000l-1189000 -1447000c-78000,-97000 -126000,-114000 -261000,-114000l-94000 0 0 1958000 -977000 0 0 -2681000 1116000 0c488000,0 733000,110000 973000,395000l1214000 1450000c78000,94000 135000,111000 261000,111000l97000 0 0 -1958000 982000 0 0 2682000zm-8590000 -1957000c-286000,0 -428000,77000 -428000,231000l0 774000c0,151000 142000,227000 428000,227000l2110000 0c285000,0 428000,-76000 428000,-227000l0 -774000c0,-154000 -143000,-231000 -428000,-231000l-2110000 0zm3540000 1106000c0,566000 -407000,851000 -1226000,851000l-2518000 0c-819000,0 -1227000,-285000 -1227000,-851000l0 -975000c0,-569000 408000,-854000 1227000,-854000l2517000 0c820000,0 1227000,285000 1227000,854000l0 975000zm-5377000 851000l-998000 0 0 -2680000 998000 0 0 2680000zm-1404000 -1957000l-1768000 0 0 1958000 -997000 0 0 -1958000 -1801000 0 0 -723000 4568000 0 -2000 723000zm-6408000 4000c-77000,0 -114000,26000 -159000,90000l-468000 701000 1434000 0 -468000 -704000c-33000,-54000 -92000,-87000 -155000,-87000l-184000 0zm2701000 1953000l-1135000 0 -322000 -479000 -2306000 0 -318000 479000 -1124000 0 1703000 -2452000c109000,-165000 207000,-228000 488000,-228000l822000 0c245000,0 371000,57000 489000,228000l1703000 2452000zm-9120000 -1957000l0 1233000 2608000 0c285000,0 427000,-77000 427000,-228000l0 -773000c0,-154000 -142000,-231000 -427000,-231000l-2608000 -1000zm4037000 1106000c0,566000 -407000,851000 -1226000,851000l-3809000 0 0 -2680000 3809000 0c819000,0 1226000,285000 1226000,854000l0 975000zm-5441000 851000l-1160000 0c-485000,0 -737000,-121000 -961000,-396000l-1190000 -1447000c-77000,-97000 -126000,-114000 -261000,-114000l-93000 0 0 1958000 -979000 0 0 -2681000 1116000 0c489000,0 733000,110000 974000,395000l1214000 1450000c77000,94000 134000,111000 261000,111000l98000 0 0 -1958000 982000 0 -1000 2682000zm-5050000 -650000c0,432000 -326000,650000 -982000,650000l-2860000 0c-656000,0 -982000,-218000 -982000,-657000l0 -2023000 999000 0 0 1856000c0,66000 61000,100000 187000,100000l2452000 0c121000,0 184000,-30000 184000,-94000l0 -1862000 1002000 0 0 2030000zm-8770000 -1307000c-285000,0 -427000,77000 -428000,231000l0 774000c0,151000 143000,227000 428000,227000l2111000 0c285000,0 427000,-76000 427000,-227000l0 -774000c0,-154000 -142000,-231000 -427000,-231000l-2111000 0zm3541000 1106000c0,566000 -408000,851000 -1227000,851000l-2518000 0c-818000,0 -1226000,-285000 -1226000,-851000l0 -975000c0,-569000 408000,-854000 1226000,-854000l2518000 0c819000,0 1227000,285000 1227000,854000l0 975000zm-5324000 -1106000l-3340000 0c-123000,0 -184000,44000 -184000,131000l0 224000 3500000 0 0 725000 -3500000 0 0 878000 -1002000 0 0 -2027000c0,-435000 326000,-652000 982000,-652000l3544000 0 0 721000zm40063000 -2955000l0 891000 -1001000 0 0 -885000 -1659000 -1795000 1149000 0 1002000 1127000 1035000 -1126000 1109000 0 -1635000 1788000zm-2862000 -1066000l-1768000 0 0 1958000 -998000 0 0 -1958000 -1801000 0 0 -723000 4568000 0 -1000 723000zm-4974000 1957000l-998000 0 0 -2680000 998000 0 0 2680000zm-1322000 0l-3553000 0c-656000,0 -982000,-218000 -982000,-650000l0 -2030000 1002000 0 0 1829000c0,84000 61000,127000 184000,127000l3348000 0 1000 724000zm-7267000 -1953000c-77000,0 -114000,26000 -159000,90000l-468000 701000 1434000 0 -468000 -704000c-33000,-54000 -92000,-88000 -156000,-87000l-183000 0zm2701000 1953000l-1135000 0 -322000 -479000 -2306000 0 -318000 479000 -1124000 0 1703000 -2452000c110000,-165000 207000,-228000 488000,-228000l822000 0c245000,0 371000,57000 489000,228000l1703000 2452000zm-5392000 -1990000l-3382000 0c-122000,0 -183000,43000 -183000,130000l0 192000 3540000 0 0 643000 -3540000 0 0 201000c0,90000 61000,134000 183000,134000l3394000 0 0 690000 -3598000 0c-655000,0 -981000,-218000 -981000,-657000l0 -1370000c0,-435000 326000,-652000 981000,-652000l3586000 0 0 689000zm-8770000 3000l0 355000 2726000 0c106000,0 158000,-37000 158000,-107000l0 -145000c0,-70000 -61000,-104000 -183000,-104000l-2701000 1000zm3854000 298000c0,453000 -285000,681000 -851000,681000l-228000 0 1217000 1008000 -1299000 0 -1136000 -975000 -1557000 0 0 975000 -998000 0 0 -2680000 3911000 0c628000,0 942000,217000 941000,652000l0 339000zm-5258000 1689000l-1160000 0c-485000,0 -738000,-121000 -962000,-395000l-1190000 -1448000c-78000,-97000 -127000,-114000 -261000,-114000l-94000 0 0 1958000 -977000 0 0 -2681000 1116000 0c488000,0 733000,110000 974000,395000l1214000 1450000c77000,94000 134000,111000 260000,111000l97000 0 0 -1958000 982000 0 1000 2682000zm-8591000 -1957000c-285000,0 -428000,78000 -428000,231000l0 774000c0,151000 143000,227000 428000,227000l2111000 0c285000,0 427000,-76000 427000,-227000l0 -774000c0,-153000 -142000,-230000 -427000,-231000l-2111000 0zm3541000 1106000c0,566000 -408000,851000 -1227000,851000l-2517000 0c-819000,0 -1227000,-285000 -1227000,-851000l0 -975000c0,-569000 408000,-854000 1227000,-854000l2517000 0c819000,0 1226000,285000 1226000,854000l1000 975000z"/>
   <path class="fil1" d="M28463000 10958000c-2000,38000 -23000,72000 -55000,92000l-2747000 1687000c-53000,32000 -123000,17000 -157000,-34000l-888000 -1323000c-14000,-21000 -36000,-38000 -61000,-45000l-1362000 -436000c-53000,-17000 -109000,-17000 -162000,0l-1363000 436000c-24000,7000 -46000,24000 -61000,45000l-887000 1323000c-35000,51000 -104000,66000 -157000,34000l-2747000 -1687000c-33000,-20000 -53000,-54000 -55000,-92000l-105000 -1930000c-1000,-19000 3000,-39000 11000,-56000l685000 -1434000c27000,-54000 91000,-80000 147000,-58000l4517000 1747000c62000,24000 130000,24000 192000,0l4517000 -1747000c56000,-22000 120000,4000 146000,58000l685000 1434000c9000,17000 13000,37000 12000,56000l-105000 1930000zm-7035000 9604000l-2902000 0c-32000,0 -62000,-12000 -84000,-34000l-5577000 -5577000c-22000,-23000 -34000,-53000 -34000,-84000l0 -2903000c0,-65000 53000,-118000 118000,-118000l1007000 0c66000,0 118000,53000 118000,118000l0 2388000c0,31000 13000,61000 35000,83000l4848000 4849000c22000,22000 52000,35000 84000,35000l2387000 0c65000,0 118000,52000 118000,117000l0 1008000c0,65000 -53000,118000 -118000,118000zm6270000 0l-2903000 0c-65000,0 -118000,-53000 -118000,-118000l0 -1008000c0,-65000 53000,-117000 118000,-117000l2388000 0c31000,0 61000,-13000 83000,-35000l4849000 -4849000c22000,-22000 34000,-52000 34000,-83000l0 -2388000c0,-65000 53000,-118000 118000,-118000l1008000 0c65000,0 118000,53000 118000,118000l0 2903000c0,31000 -13000,61000 -35000,84000l-5577000 5577000c-22000,22000 -52000,34000 -83000,34000zm5577000 -11847000l-1008000 0c-65000,0 -118000,-52000 -118000,-117000l0 -2388000c0,-32000 -12000,-61000 -34000,-84000l-4849000 -4848000c-22000,-22000 -52000,-35000 -83000,-35000l-2388000 0c-65000,0 -118000,-52000 -118000,-118000l0 -1007000c0,-65000 53000,-118000 118000,-118000l2903000 0c31000,0 61000,12000 83000,34000l5577000 5577000c22000,22000 35000,52000 35000,84000l0 2903000c0,65000 -53000,117000 -118000,117000zm-19319000 0l-1007000 0c-65000,0 -118000,-52000 -118000,-117000l0 -2903000c0,-32000 12000,-62000 34000,-84000l5577000 -5577000c22000,-22000 52000,-34000 84000,-34000l2902000 0c65000,0 118000,53000 118000,118000l0 1007000c0,66000 -53000,118000 -118000,118000l-2387000 0c-32000,0 -62000,13000 -84000,35000l-4848000 4848000c-22000,23000 -35000,52000 -35000,84000l0 2388000c0,65000 -52000,117000 -118000,117000zm13235000 1783000l-459000 460000c-7000,7000 -16000,10000 -26000,10000l-217000 0c-19000,0 -35000,-15000 -35000,-35000l0 -323000c0,-20000 -16000,-36000 -36000,-36000l-191000 0c-19000,0 -35000,16000 -35000,36000l0 323000c0,20000 -16000,35000 -36000,35000l-217000 0c-9000,0 -18000,-3000 -25000,-10000l-460000 -460000c-6000,-6000 -10000,-15000 -10000,-25000l0 -217000c0,-20000 16000,-36000 35000,-36000l324000 0c19000,0 35000,-15000 35000,-35000l0 -191000c0,-19000 -16000,-35000 -35000,-35000l-324000 0c-19000,0 -35000,-16000 -35000,-36000l0 -217000c0,-9000 4000,-19000 10000,-25000l460000 -460000c7000,-6000 16000,-10000 25000,-10000l217000 0c20000,0 36000,16000 36000,35000l0 323000c0,20000 16000,36000 35000,36000l191000 0c20000,0 36000,-16000 36000,-36000l0 -323000c0,-19000 16000,-35000 35000,-35000l217000 0c10000,0 19000,4000 26000,10000l459000 460000c7000,6000 11000,16000 11000,25000l0 217000c0,20000 -16000,36000 -36000,36000l-323000 0c-20000,0 -35000,16000 -35000,35000l0 191000c0,20000 15000,35000 35000,35000l323000 0c20000,0 36000,16000 36000,36000l0 217000c0,10000 -4000,19000 -11000,25000zm631000 -539000l-323000 0c-20000,0 -35000,-16000 -35000,-36000l0 -325000c0,-10000 -4000,-19000 -11000,-26000l-613000 -613000c-7000,-6000 -16000,-10000 -25000,-10000l-326000 0c-19000,0 -35000,-16000 -35000,-36000l0 -323000c0,-19000 -16000,-35000 -36000,-35000l-191000 0c-19000,0 -35000,16000 -35000,35000l0 323000c0,20000 -16000,36000 -36000,36000l-325000 0c-10000,0 -19000,4000 -25000,10000l-613000 613000c-7000,7000 -11000,16000 -11000,26000l0 325000c0,20000 -16000,36000 -35000,36000l-324000 0c-19000,0 -35000,16000 -35000,35000l0 191000c0,20000 16000,35000 35000,35000l324000 0c19000,0 35000,16000 35000,36000l0 326000c0,9000 4000,18000 11000,25000l613000 613000c6000,7000 15000,10000 25000,10000l325000 0c20000,0 36000,16000 36000,36000l0 323000c0,20000 16000,36000 35000,36000l191000 0c20000,0 36000,-16000 36000,-36000l0 -323000c0,-20000 16000,-36000 35000,-36000l326000 0c9000,0 18000,-3000 25000,-10000l613000 -613000c7000,-7000 11000,-16000 11000,-25000l0 -326000c0,-20000 15000,-36000 35000,-36000l323000 0c20000,0 36000,-15000 36000,-35000l0 -191000c0,-19000 -16000,-35000 -36000,-35000zm150000 2779000c0,38000 -19000,75000 -51000,96000l-1968000 1322000c-47000,31000 -111000,-2000 -111000,-59000l0 -634000c0,-39000 19000,-75000 51000,-97000l2000000 -1343000c34000,-22000 79000,2000 79000,42000l0 673000zm0 1384000c0,38000 -19000,74000 -51000,96000l-1966000 1320000c-48000,32000 -113000,-2000 -113000,-61000l0 -631000c0,-38000 19000,-74000 51000,-96000l1998000 -1341000c34000,-23000 81000,2000 81000,43000l0 670000zm0 1384000c0,38000 -19000,74000 -51000,96000l-1966000 1320000c-48000,32000 -113000,-3000 -113000,-61000l0 -631000c0,-38000 19000,-74000 51000,-96000l1998000 -1341000c34000,-23000 81000,1000 81000,43000l0 670000zm-7590000 -1409000c0,57000 -64000,90000 -111000,59000l-1968000 -1322000c-32000,-21000 -51000,-58000 -51000,-96000l0 -673000c0,-40000 45000,-64000 78000,-42000l2000000 1343000c32000,22000 52000,58000 52000,97000l0 634000zm0 1380000c0,59000 -65000,93000 -114000,61000l-1965000 -1320000c-32000,-22000 -51000,-58000 -51000,-96000l0 -670000c0,-41000 46000,-66000 81000,-43000l1997000 1341000c32000,22000 52000,58000 52000,96000l0 631000zm0 1384000c0,58000 -65000,93000 -114000,61000l-1965000 -1320000c-32000,-22000 -51000,-58000 -51000,-96000l0 -670000c0,-42000 46000,-66000 81000,-43000l1997000 1341000c32000,22000 52000,58000 52000,96000l0 631000zm8736000 -7980000l-931000 -1961000c-4000,-9000 -7000,-18000 -9000,-28000l-508000 -2769000c-7000,-41000 -36000,-74000 -75000,-88000l-4393000 -1577000c-58000,-21000 -122000,-21000 -180000,0l-4394000 1577000c-39000,14000 -67000,47000 -74000,88000l-508000 2769000c-2000,10000 -5000,19000 -9000,28000l-931000 1961000c-9000,17000 -12000,36000 -11000,55000l131000 2847000c1000,26000 11000,51000 27000,70000l507000 598000c17000,20000 27000,45000 28000,71000l108000 3508000c1000,34000 17000,65000 43000,86000l2866000 1927000c20000,17000 46000,26000 72000,26000l2235000 0 2234000 0c27000,0 52000,-9000 73000,-26000l2865000 -1927000c27000,-21000 42000,-52000 44000,-86000l108000 -3508000c1000,-26000 11000,-51000 28000,-71000l507000 -598000c16000,-19000 26000,-44000 27000,-70000l131000 -2847000c1000,-19000 -3000,-38000 -11000,-55000z"/>
  </g>
 </g>
</svg>
