<?xml version="1.0" encoding="UTF-8"?>
<!DOCTYPE svg PUBLIC "-//W3C//DTD SVG 1.1//EN" "http://www.w3.org/Graphics/SVG/1.1/DTD/svg11.dtd">
<!-- Creator: CorelDRAW 2018 (64-Bit) -->
<svg xmlns="http://www.w3.org/2000/svg" xml:space="preserve" width="5.14843in" height="5.14843in" version="1.1" style="shape-rendering:geometricPrecision; text-rendering:geometricPrecision; image-rendering:optimizeQuality; fill-rule:evenodd; clip-rule:evenodd"
viewBox="0 0 865.43 865.43"
 xmlns:xlink="http://www.w3.org/1999/xlink">
 <defs>
  <style type="text/css">
   <![CDATA[
    .fil0 {fill:#222222}
    .fil1 {fill:#E60D2E}
   ]]>
  </style>
 </defs>
 <g id="Layer_x0020_1">
  <metadata id="CorelCorpID_0Corel-Layer"/>
  <polygon class="fil0" points="253.47,0 432.68,0 611.96,0 738.69,126.73 865.43,253.47 865.43,432.68 865.43,611.96 738.69,738.69 611.96,865.43 432.68,865.43 253.47,865.43 126.73,738.69 -0,611.96 -0,432.68 -0,253.47 126.73,126.73 "/>
  <g id="_2187025826752">
   <path class="fil1" d="M37.13 384.37l0 -115.75 232.03 -231.96 119.32 0 0 37.66 -103.7 0 -209.92 209.92 0 100.13 -37.72 0zm441.15 -347.71l118.92 0 231.96 231.96 0 115.75 -37.72 0 0 -100.13 -209.85 -209.92 -103.31 0 0 -37.66zm350.88 437.45l0 122.56 -231.96 231.96 -118.92 0 0 -37.72 103.31 0 209.85 -209.85 0 -106.95 37.72 0zm-440.69 354.52l-119.32 0 -232.03 -231.96 0 -122.56 37.72 0 0 106.95 209.92 209.85 103.7 0 0 37.72z"/>
   <path class="fil1" d="M237.65 304.69l0.13 -0.33 0 -0.26c6.55,-21.11 8.54,-40.5 19.85,-103.97l176.43 -61.35 175.9 61.41c11.38,63.47 13.37,82.86 19.85,103.97l0.07 0.26 0.13 0.33c5.49,17.54 14.16,36.66 34.02,83.58l-7.28 109.79 -17.87 25.28 -6.49 126.01 -115.55 88.95 -166.04 -0.07 -115.62 -88.95 -6.42 -126.01 -17.87 -25.21 -7.35 -109.86c19.85,-46.86 28.59,-65.98 34.08,-83.58zm377.82 317.13l-71.67 44.8 0.6 16.88 0.13 3.04 70.22 -43.88 0.73 -20.85zm1.39 -37.26l-74.32 46.46 0.66 18.99 0.4 0.73 72.47 -45.27 0.79 -20.91zm1.32 -37.06l-76.97 48.05 0.73 19.19 0.33 0.6 75.11 -46.99 0.79 -20.85zm0.99 -37.79l-79.28 49.5 0.73 19.99 78.16 -48.84 0.73 -20.05 -0.33 -0.6zm-366.9 112.11l71.74 44.8 -0.66 16.88 -0.07 3.04 -70.28 -43.88 -0.73 -20.85zm-1.32 -37.26l74.32 46.46 -0.66 18.99 -0.46 0.73 -72.47 -45.27 -0.73 -20.91zm-1.32 -37.06l76.9 48.05 -0.66 19.19 -0.4 0.6 -75.11 -46.99 -0.73 -20.85zm-0.99 -37.79l79.22 49.5 -0.73 19.99 -78.16 -48.84 -0.73 -20.05 0.4 -0.6zm185.77 -107.54l182.39 -71.28c8.8,19.92 17.67,39.77 26.41,59.69 -2.05,25.68 -4.1,51.36 -6.22,77.03 -36.33,22.83 -72.86,45.4 -109.26,68.03l-38.71 -53.47 -55.19 -19.26 -55.19 19.19 -38.78 53.47c-36.4,-22.63 -72.93,-45.2 -109.2,-68.03 -2.12,-25.68 -4.17,-51.36 -6.22,-77.03 8.74,-19.92 17.54,-39.77 26.34,-59.69l183.65 71.34z"/>
   <polygon class="fil1" points="557.69,373.25 557.69,399 550.15,399 550.15,373.25 "/>
   <polygon class="fil1" points="557.69,458.16 557.69,483.9 550.15,483.9 550.15,458.16 "/>
   <polygon class="fil1" points="498.53,424.81 524.34,424.81 524.34,432.35 498.53,432.35 "/>
   <polygon class="fil1" points="583.44,424.81 609.25,424.81 609.25,432.35 583.44,432.35 "/>
   <polygon class="fil1" points="507.66,419.18 507.66,409.45 534.73,382.32 544.33,382.32 544.33,389.86 537.91,389.86 515.21,412.56 515.21,419.18 "/>
   <polygon class="fil1" points="544.52,474.77 534.73,474.77 507.66,447.7 507.66,438.11 515.21,438.11 515.21,444.59 537.84,467.23 544.52,467.23 "/>
   <polygon class="fil1" points="600.51,437.98 600.51,447.77 573.38,474.84 563.78,474.84 563.78,467.36 570.27,467.36 592.97,444.66 592.97,437.98 "/>
   <polygon class="fil1" points="563.52,382.12 573.31,382.12 600.38,409.19 600.38,418.78 592.84,418.78 592.84,412.36 570.2,389.66 563.52,389.66 "/>
  </g>
 </g>
</svg>
