<?xml version="1.0" encoding="UTF-8"?>
<!DOCTYPE svg PUBLIC "-//W3C//DTD SVG 1.1//EN" "http://www.w3.org/Graphics/SVG/1.1/DTD/svg11.dtd">
<!-- Creator: CorelDRAW 2018 (64-Bit) -->
<svg xmlns="http://www.w3.org/2000/svg" xml:space="preserve" width="17.4931in" height="3.09402in" version="1.1" style="shape-rendering:geometricPrecision; text-rendering:geometricPrecision; image-rendering:optimizeQuality; fill-rule:evenodd; clip-rule:evenodd"
viewBox="0 0 6064.93 1072.71"
 xmlns:xlink="http://www.w3.org/1999/xlink">
 <defs>
  <style type="text/css">
   <![CDATA[
    .fil1 {fill:#E60D2E}
    .fil0 {fill:#E60D2E;fill-rule:nonzero}
   ]]>
  </style>
 </defs>
 <g id="Layer_x0020_1">
  <metadata id="CorelCorpID_0Corel-Layer"/>
  <g id="_1974615026128">
   <g id="_2187025826752">
    <path class="fil0" d="M-0 471.04l0 -157.01 314.03 -314.03 162.16 0 0 50.84 -140.93 0 -284.42 284.42 0 135.78 -50.84 0 0 0zm597.81 -471.04l160.87 0 314.03 314.03 0 157.01 -50.84 0 0 -135.78 -284.42 -284.42 -139.64 0 0 -50.84 0 -0zm474.9 592.66l0 166.02 -314.03 314.03 -160.87 0 0 -50.84 139.64 0 284.42 -284.42 0 -144.79 50.84 0zm-596.52 480.05l-162.16 0 -314.03 -314.03 0 -166.02 50.84 0 0 144.79 284.42 284.42 140.93 0 0 50.84z"/>
    <path class="fil1" d="M271.55 362.93l0 0 0 -0.64c9.01,-28.31 11.58,-54.7 27.03,-140.93l239.38 -83.01 238.09 83.01c15.44,86.23 18.02,112.61 27.03,140.93l0 0.64 0 0c7.72,23.81 19.3,50.19 46.33,113.25l-10.3 148.65 -23.81 34.75 -9.01 170.53 -156.37 120.33 -225.22 0 -156.37 -120.33 -9.01 -170.53 -23.81 -34.75 -10.3 -148.65c27.03,-63.06 39.25,-89.45 46.33,-113.25l0 0zm511.58 429.85l-96.52 60.49 0.64 23.17 0 3.86 95.24 -59.2 0.64 -28.31 0 -0zm1.93 -50.84l-100.39 63.06 0.64 25.74 0.64 1.29 98.45 -61.78 0.64 -28.31 0 0zm1.93 -50.19l-104.25 64.99 1.29 26.38 0 0.64 101.67 -63.71 1.29 -28.31zm1.29 -50.84l-107.46 66.92 1.29 27.03 105.53 -66.28 1.29 -27.03 -0.64 -0.64 -0 0zm-496.78 151.86l97.17 60.49 -0.64 23.17 -0.64 3.86 -95.24 -59.2 -0.64 -28.31 -0 -0zm-1.93 -50.84l101.03 63.06 -1.29 25.74 -0.64 1.29 -97.81 -61.78 -1.29 -28.31 0 0zm-1.93 -50.19l104.25 64.99 -0.64 26.38 -0.64 0.64 -101.67 -63.71 -1.29 -28.31 -0 0zm-1.29 -50.84l107.46 66.92 -1.29 27.03 -105.53 -66.28 -1.29 -27.03 0.64 -0.64 0 0zm251.61 -146.07l247.1 -96.52c12.23,27.03 23.81,54.05 36.04,81.08 -2.57,34.75 -5.79,69.5 -8.37,104.25 -49.55,30.89 -99.1,61.78 -148,92.02l-52.77 -72.07 -74.64 -26.38 -74.64 26.38 -52.77 72.07c-48.91,-30.24 -98.45,-61.13 -148,-92.02 -2.57,-34.75 -5.15,-69.5 -8.37,-104.25 12.23,-27.03 23.81,-54.05 36.04,-81.08l248.39 96.52 0 0z"/>
    <polygon class="fil0" points="705.27,456.24 705.27,490.99 694.97,490.99 694.97,456.24 "/>
    <polygon class="fil0" points="705.27,570.78 705.27,605.53 694.97,605.53 694.97,570.78 "/>
    <polygon class="fil0" points="624.83,525.73 660.23,525.73 660.23,536.03 624.83,536.03 "/>
    <polygon class="fil0" points="740.02,525.73 774.77,525.73 774.77,536.03 740.02,536.03 "/>
    <polygon class="fil0" points="637.7,518.01 637.7,505.14 673.74,468.46 687.25,468.46 687.25,478.76 678.24,478.76 647.35,509 647.35,518.01 "/>
    <polygon class="fil0" points="687.25,593.3 673.74,593.3 637.7,556.62 637.7,543.75 647.35,543.75 647.35,552.76 678.24,583.01 687.25,583.01 "/>
    <polygon class="fil0" points="763.18,543.75 763.18,556.62 726.5,593.3 713.64,593.3 713.64,583.65 722,583.65 752.89,552.76 752.89,543.75 "/>
    <polygon class="fil1" points="712.99,467.82 726.5,467.82 763.18,504.5 763.18,517.37 752.89,517.37 752.89,509 722,478.12 712.99,478.12 "/>
   </g>
   <path class="fil0" d="M1767.68 780.56c-26.38,21.23 -54.05,36.04 -83.65,45.04 -28.96,9.01 -61.13,13.51 -95.24,13.51 -39.9,0 -76.58,-8.37 -108.75,-24.45 -32.18,-16.09 -59.2,-38.61 -82.37,-66.28 -22.52,-28.31 -39.25,-61.13 -51.48,-98.45 -11.58,-37.32 -17.37,-76.58 -17.37,-119.05 0,-39.25 5.15,-77.22 16.09,-112.61 10.3,-35.39 27.03,-66.92 48.91,-93.95 21.88,-26.38 50.19,-47.62 83.65,-63.71 34.11,-15.44 74,-23.17 119.69,-23.17 34.11,0 66.28,5.79 97.17,17.37 30.89,11.58 57.27,28.31 80.44,50.19l-57.91 68.21c-9.01,-5.15 -18.02,-10.94 -27.67,-16.09 -9.01,-5.15 -18.66,-9.65 -28.31,-14.16 -10.3,-3.86 -19.95,-6.43 -29.6,-9.01 -9.65,-2.57 -18.66,-3.86 -27.67,-3.86 -25.1,0 -45.69,5.15 -63.06,16.09 -18.02,10.94 -31.53,25.1 -43.11,43.11 -10.94,18.02 -18.66,39.25 -23.81,63.71 -5.15,23.81 -7.72,49.55 -7.72,76.58 0,16.09 1.29,32.18 3.22,48.91 2.57,17.37 5.79,33.46 10.3,49.55 4.5,16.73 10.3,31.53 17.37,45.69 7.72,14.16 16.09,26.38 25.74,37.32 9.65,10.94 21.23,19.3 33.46,25.74 12.87,5.79 27.03,9.01 42.47,9.01 9.01,0 18.02,-0.64 26.38,-1.93 8.37,-1.29 17.37,-3.86 27.03,-7.08 9.65,-3.22 19.95,-7.72 31.53,-12.87 10.94,-5.79 23.81,-12.23 37.97,-19.95l46.33 76.58 -0 0zm288.93 58.56c-43.76,0 -82.37,-7.08 -117.76,-22.52 -34.75,-14.8 -63.71,-36.04 -88.8,-63.06 -23.81,-27.03 -42.47,-58.56 -55.34,-95.24 -13.51,-37.32 -19.95,-77.22 -19.95,-119.69 0,-43.76 6.43,-83.65 19.3,-120.33 12.23,-36.68 30.89,-68.21 54.7,-95.24 23.81,-27.03 53.41,-47.62 88.16,-63.06 35.39,-14.8 75.29,-22.52 119.69,-22.52 43.76,0 83.01,7.72 117.76,22.52 35.39,15.44 64.35,36.04 88.8,63.06 24.45,27.03 43.11,58.56 55.98,95.24 12.87,36.68 19.3,76.58 19.3,120.33 0,42.47 -6.43,82.37 -18.66,119.69 -12.87,36.68 -30.89,68.21 -55.34,95.24 -23.81,27.03 -53.41,48.26 -88.16,63.06 -34.75,15.44 -74.64,22.52 -119.69,22.52l-0 0zm144.79 -289.57c0,-27.67 -2.57,-54.7 -8.37,-80.44 -5.15,-25.74 -13.51,-48.91 -25.1,-68.21 -11.58,-20.59 -27.03,-36.04 -45.69,-48.26 -18.66,-12.23 -41.18,-18.02 -67.57,-18.02 -25.1,0 -46.98,5.15 -64.99,15.44 -18.02,10.94 -32.82,25.1 -44.4,42.47 -11.58,18.02 -19.95,38.61 -25.1,61.13 -5.15,23.17 -7.72,46.98 -7.72,71.43 0,28.31 2.57,55.34 7.72,81.72 5.15,25.74 14.16,48.91 25.74,68.85 11.58,19.95 27.03,36.04 45.69,48.26 18.66,12.23 40.54,18.02 66.92,18.02 25.74,0 46.98,-5.15 64.99,-16.09 18.02,-10.94 32.82,-25.74 44.4,-43.11 11.58,-18.02 19.95,-38.61 25.1,-61.78 5.79,-23.17 8.37,-46.33 8.37,-71.43l0 0zm696.9 -315.95l0 599.09 -124.19 0 -164.09 -274.77 -58.56 -132.56 -1.93 0.64 14.8 135.78 0 270.91 -134.49 0 0 -495.49 -12.87 -90.73 139.64 -12.23 167.31 280.56 58.56 141.57 1.93 -0.64 -18.66 -143.5 0 -265.76 132.56 -12.87 0 0zm254.82 155.72l0 128.7 25.74 0c17.37,0 32.18,-2.57 45.69,-8.37 12.87,-5.79 23.17,-13.51 32.18,-22.52 8.37,-9.65 14.8,-20.59 18.66,-33.46 3.86,-12.23 6.43,-25.74 6.43,-39.25 0,-18.66 -3.22,-33.46 -9.01,-45.69 -6.43,-11.58 -14.16,-21.88 -23.81,-28.96 -9.65,-7.08 -20.59,-12.23 -32.82,-14.8 -12.23,-3.22 -24.45,-4.5 -36.04,-4.5 -5.15,0 -9.65,0 -12.87,0 -3.22,0 -5.79,0 -7.72,0 -2.57,0 -4.5,0 -6.43,0 -1.93,0.64 -3.86,0.64 -6.43,0.64l6.43 68.21 -0 0zm18.66 222.01c-2.57,-3.86 -6.43,-5.79 -9.65,-6.43 -3.86,-0.64 -6.43,-1.29 -9.01,-1.29l0 229.08 -137.71 0 0 -495.49 -15.44 -86.23c12.23,-1.29 25.74,-2.57 40.54,-4.5 14.8,-1.29 29.6,-2.57 45.04,-3.22 16.09,-1.29 30.89,-1.93 45.69,-2.57 14.8,-0.64 27.67,-0.64 39.25,-0.64 36.04,0 68.85,3.22 97.81,10.3 29.6,7.08 55.34,18.02 75.93,32.18 21.23,14.16 37.32,32.18 49.55,52.77 10.94,21.23 16.73,45.69 16.73,73.36 0,28.31 -3.86,52.12 -12.87,72.71 -8.37,19.95 -20.59,37.32 -35.39,51.48 -14.8,14.16 -32.18,26.38 -51.48,35.39 -19.95,9.01 -39.9,16.73 -61.13,22.52l54.7 12.87 171.17 229.08 -144.14 0 -159.59 -221.36 0 -0zm731.65 131.92l-10.3 89.45 -375.16 0 6.43 -90.73 0 -404.76 -13.51 -93.31 378.37 0 0 89.45 -232.94 0 5.79 54.05 0 85.59 201.41 0 0 83.65 -201.41 0 0 135.13 -3.22 51.48 244.53 0 0 0zm47.62 89.45l155.73 -503.86 14.16 -82.37 148 -12.23 187.9 598.45 -133.85 0 -45.69 -167.31 -153.8 0 -44.4 167.31 -128.05 0 -0 -0zm249.68 -534.1l-21.23 145.43 -32.82 135.13 107.46 0 -33.46 -135.13 -19.95 -145.43zm439.51 444.66l243.24 0 -10.94 89.45 -375.8 0 9.01 -91.38 0 -404.11 -13.51 -90.73 151.22 -12.23 0 457.52 -3.22 51.48 -0 0zm294.08 89.45l0 -495.49 -13.51 -90.73 151.22 -12.23 0 598.45 -137.71 0zm351.35 0l0 -499.35 -154.44 0 0 -89.45 445.94 0 0 89.45 -153.15 0 0 499.35 -138.35 0zm511.58 -448.52l41.83 144.79 23.17 -144.79 71.43 -140.28 131.27 0 -169.88 333.33 0 255.47 -137.71 0 0 -255.47 -168.6 -330.11 133.2 -12.87 75.29 149.93 0 -0z"/>
  </g>
 </g>
</svg>
