<?xml version="1.0" encoding="UTF-8"?>
<!DOCTYPE svg PUBLIC "-//W3C//DTD SVG 1.1//EN" "http://www.w3.org/Graphics/SVG/1.1/DTD/svg11.dtd">
<!-- Creator: CorelDRAW 2018 (64-Bit) -->
<svg xmlns="http://www.w3.org/2000/svg" xml:space="preserve" width="2000px" height="2000px" version="1.1" style="shape-rendering:geometricPrecision; text-rendering:geometricPrecision; image-rendering:optimizeQuality; fill-rule:evenodd; clip-rule:evenodd"
viewBox="0 0 16951000 16951000"
 xmlns:xlink="http://www.w3.org/1999/xlink">
 <defs>
  <style type="text/css">
   <![CDATA[
    .fil0 {fill:#E60D2E;fill-rule:nonzero}
   ]]>
  </style>
 </defs>
 <g id="Layer_x0020_1">
  <metadata id="CorelCorpID_0Corel-Layer"/>
  <path class="fil0" d="M12887000 9033000c-2000,32000 -19000,60000 -46000,77000l-2264000 1390000c-44000,27000 -101000,14000 -130000,-28000l-731000 -1090000c-12000,-18000 -30000,-32000 -51000,-38000l-1123000 -359000c-43000,-14000 -90000,-14000 -133000,0l-1124000 359000c-20000,6000 -38000,20000 -50000,38000l-732000 1090000c-28000,42000 -85000,55000 -129000,28000l-2264000 -1390000c-27000,-17000 -44000,-45000 -46000,-77000l-86000 -1591000c-1000,-15000 2000,-31000 9000,-46000l565000 -1182000c21000,-45000 74000,-66000 121000,-48000l3723000 1441000c51000,19000 108000,19000 159000,0l3723000 -1441000c47000,-18000 99000,3000 121000,48000l565000 1182000c7000,15000 10000,31000 9000,46000l-86000 1591000zm-5799000 7918000l-2393000 0c-26000,0 -51000,-11000 -69000,-29000l-4597000 -4597000c-19000,-18000 -29000,-43000 -29000,-69000l0 -2393000c0,-54000 44000,-97000 97000,-97000l831000 0c54000,0 97000,43000 97000,97000l0 1968000c0,26000 10000,51000 29000,69000l3997000 3997000c18000,18000 42000,29000 68000,29000l1969000 0c53000,0 97000,43000 97000,97000l0 831000c0,53000 -44000,97000 -97000,97000zm5168000 0l-2393000 0c-53000,0 -97000,-44000 -97000,-97000l0 -831000c0,-54000 44000,-97000 97000,-97000l1969000 0c25000,0 50000,-11000 68000,-29000l3997000 -3997000c19000,-18000 29000,-43000 29000,-69000l0 -1968000c0,-54000 43000,-97000 97000,-97000l831000 0c53000,0 97000,43000 97000,97000l0 2393000c0,26000 -11000,51000 -29000,69000l-4597000 4597000c-18000,18000 -43000,29000 -69000,29000zm4598000 -9766000l-831000 0c-54000,0 -97000,-44000 -97000,-97000l0 -1969000c0,-26000 -10000,-50000 -29000,-69000l-3997000 -3997000c-18000,-18000 -43000,-28000 -68000,-28000l-1969000 0c-53000,0 -97000,-44000 -97000,-97000l0 -831000c0,-54000 44000,-97000 97000,-97000l2393000 0c26000,0 51000,10000 69000,28000l4597000 4598000c19000,18000 29000,43000 29000,69000l0 2393000c0,53000 -44000,97000 -97000,97000zm-15926000 0l-831000 0c-53000,0 -97000,-44000 -97000,-97000l0 -2393000c0,-26000 10000,-51000 29000,-69000l4597000 -4598000c18000,-18000 43000,-28000 69000,-28000l2393000 0c53000,0 97000,43000 97000,97000l0 831000c0,53000 -44000,97000 -97000,97000l-1969000 0c-26000,0 -50000,10000 -68000,28000l-3997000 3997000c-19000,19000 -29000,43000 -29000,69000l0 1969000c0,53000 -43000,97000 -97000,97000zm10911000 1470000l-379000 379000c-6000,5000 -13000,8000 -21000,8000l-179000 0c-16000,0 -30000,-13000 -30000,-29000l0 -267000c0,-16000 -13000,-29000 -29000,-29000l-157000 0c-16000,0 -29000,13000 -29000,29000l0 267000c0,16000 -14000,29000 -30000,29000l-179000 0c-7000,0 -15000,-3000 -20000,-8000l-380000 -379000c-5000,-6000 -8000,-13000 -8000,-21000l0 -179000c0,-16000 13000,-30000 29000,-30000l267000 0c16000,0 29000,-13000 29000,-29000l0 -157000c0,-16000 -13000,-29000 -29000,-29000l-267000 0c-16000,0 -29000,-13000 -29000,-30000l0 -179000c0,-7000 3000,-15000 8000,-20000l380000 -379000c5000,-6000 13000,-9000 20000,-9000l179000 0c16000,0 30000,13000 30000,29000l0 267000c0,16000 13000,29000 29000,29000l157000 0c16000,0 29000,-13000 29000,-29000l0 -267000c0,-16000 14000,-29000 30000,-29000l179000 0c8000,0 15000,3000 21000,9000l379000 379000c5000,5000 8000,13000 8000,20000l0 179000c0,17000 -13000,30000 -29000,30000l-267000 0c-16000,0 -29000,13000 -29000,29000l0 157000c0,16000 13000,29000 29000,29000l267000 0c16000,0 29000,14000 29000,30000l0 179000c0,8000 -3000,15000 -8000,21000zm520000 -445000l-267000 0c-16000,0 -29000,-13000 -29000,-30000l0 -268000c0,-8000 -3000,-15000 -9000,-21000l-505000 -505000c-6000,-6000 -13000,-9000 -21000,-9000l-268000 0c-16000,0 -30000,-13000 -30000,-29000l0 -267000c0,-16000 -13000,-29000 -29000,-29000l-157000 0c-16000,0 -29000,13000 -29000,29000l0 267000c0,16000 -14000,29000 -30000,29000l-268000 0c-8000,0 -15000,3000 -21000,9000l-505000 505000c-6000,6000 -9000,13000 -9000,21000l0 268000c0,17000 -13000,30000 -29000,30000l-267000 0c-16000,0 -29000,13000 -29000,29000l0 157000c0,16000 13000,29000 29000,29000l267000 0c16000,0 29000,14000 29000,30000l0 268000c0,8000 3000,16000 9000,21000l505000 505000c6000,6000 13000,9000 21000,9000l268000 0c16000,0 30000,13000 30000,29000l0 267000c0,16000 13000,29000 29000,29000l157000 0c16000,0 29000,-13000 29000,-29000l0 -267000c0,-16000 14000,-29000 30000,-29000l268000 0c8000,0 15000,-3000 21000,-9000l505000 -505000c6000,-5000 9000,-13000 9000,-21000l0 -268000c0,-16000 13000,-30000 29000,-30000l267000 0c16000,0 29000,-13000 29000,-29000l0 -157000c0,-16000 -13000,-29000 -29000,-29000zm123000 2291000c0,32000 -16000,61000 -42000,79000l-1623000 1090000c-38000,26000 -91000,-2000 -91000,-49000l0 -523000c0,-32000 16000,-61000 43000,-79000l1648000 -1107000c28000,-19000 65000,1000 65000,34000l0 555000zm0 1141000c0,31000 -16000,61000 -42000,79000l-1620000 1088000c-40000,27000 -94000,-2000 -94000,-50000l0 -520000c0,-32000 16000,-61000 43000,-79000l1646000 -1106000c29000,-19000 67000,1000 67000,36000l0 552000zm0 1140000c0,32000 -16000,62000 -42000,80000l-1620000 1088000c-40000,26000 -94000,-2000 -94000,-50000l0 -520000c0,-32000 16000,-62000 43000,-79000l1646000 -1106000c29000,-19000 67000,1000 67000,36000l0 551000zm-6257000 -1161000c0,47000 -53000,75000 -91000,49000l-1623000 -1090000c-26000,-18000 -42000,-47000 -42000,-79000l0 -555000c0,-33000 37000,-53000 65000,-34000l1648000 1107000c27000,18000 43000,47000 43000,79000l0 523000zm0 1138000c0,48000 -54000,77000 -94000,50000l-1620000 -1088000c-26000,-18000 -42000,-48000 -42000,-79000l0 -552000c0,-35000 38000,-55000 67000,-36000l1646000 1106000c27000,18000 43000,47000 43000,79000l0 520000zm0 1141000c0,48000 -54000,76000 -94000,50000l-1620000 -1088000c-26000,-18000 -42000,-48000 -42000,-80000l0 -551000c0,-35000 38000,-55000 67000,-36000l1646000 1106000c27000,17000 43000,47000 43000,79000l0 520000zm7202000 -6579000l-768000 -1616000c-3000,-8000 -6000,-16000 -7000,-24000l-419000 -2282000c-6000,-34000 -29000,-61000 -62000,-73000l-3621000 -1300000c-48000,-17000 -101000,-17000 -149000,0l-3622000 1300000c-32000,12000 -55000,39000 -61000,73000l-419000 2282000c-1000,8000 -4000,16000 -7000,24000l-768000 1616000c-7000,14000 -10000,30000 -9000,45000l108000 2348000c1000,21000 9000,41000 23000,57000l418000 494000c14000,16000 22000,37000 22000,58000l90000 2892000c1000,28000 14000,54000 35000,71000l2363000 1589000c17000,13000 38000,21000 59000,21000l1842000 0 1842000 0c22000,0 43000,-8000 60000,-21000l2363000 -1589000c21000,-17000 34000,-43000 35000,-71000l90000 -2892000c0,-21000 8000,-42000 22000,-58000l418000 -494000c14000,-16000 22000,-36000 23000,-57000l108000 -2348000c1000,-15000 -3000,-31000 -9000,-45000z"/>
 </g>
</svg>
