<?xml version="1.0" encoding="UTF-8"?>
<!DOCTYPE svg PUBLIC "-//W3C//DTD SVG 1.1//EN" "http://www.w3.org/Graphics/SVG/1.1/DTD/svg11.dtd">
<!-- Creator: CorelDRAW 2018 (64-Bit) -->
<svg xmlns="http://www.w3.org/2000/svg" xml:space="preserve" width="7.15039in" height="8.90591in" version="1.1" style="shape-rendering:geometricPrecision; text-rendering:geometricPrecision; image-rendering:optimizeQuality; fill-rule:evenodd; clip-rule:evenodd"
viewBox="0 0 1638.58 2040.88"
 xmlns:xlink="http://www.w3.org/1999/xlink">
 <defs>
  <style type="text/css">
   <![CDATA[
    .fil1 {fill:#E60D2E}
    .fil0 {fill:#E60D2E;fill-rule:nonzero}
   ]]>
  </style>
 </defs>
 <g id="Layer_x0020_1">
  <metadata id="CorelCorpID_0Corel-Layer"/>
  <g id="_2187183232528">
   <g>
    <path class="fil0" d="M21.83 699.39l0 -232.77 466.53 -466.62 240.08 0 0 75.88 -208.68 0 -422.14 422.14 0 201.37 -75.79 0zm887.14 -699.39l239.17 0 466.53 466.62 0 232.77 -75.79 0 0 -201.37 -422.14 -422.14 -207.78 0 0 -75.88zm705.7 879.92l0 246.48 -466.53 466.53 -239.17 0 0 -75.88 207.78 0 422.14 -422.05 0 -215.09 75.79 0zm-886.24 713.01l-240.08 0 -466.53 -466.53 0 -246.48 75.79 0 0 215.09 422.14 422.05 208.68 0 0 75.88z"/>
    <path class="fil1" d="M425.03 539.16l0.27 -0.63 0.09 -0.54c13.08,-42.49 17.05,-81.47 39.88,-209.13l354.75 -123.33 353.93 123.42c22.74,127.66 26.8,166.64 39.88,209.22l0.09 0.45 0.27 0.63c11.01,35.37 28.51,73.8 68.48,168.08l-14.71 220.95 -36 50.79 -12.9 253.43 -232.5 178.82 -333.91 -0.09 -232.5 -178.82 -12.9 -253.43 -36 -50.79 -14.71 -220.86c39.97,-94.37 57.47,-132.8 68.48,-168.17zm759.93 637.77l-144.17 90.13 1.17 34.01 0.27 6.13 141.29 -88.33 1.44 -41.95zm2.71 -74.79l-149.5 93.38 1.44 38.25 0.81 1.35 145.8 -91.03 1.44 -41.95zm2.71 -74.61l-154.73 96.72 1.35 38.52 0.72 1.17 151.12 -94.46 1.53 -41.95zm1.98 -75.97l-159.33 99.51 1.44 40.15 157.16 -98.16 1.44 -40.33 -0.72 -1.17zm-737.91 225.37l144.26 90.13 -1.26 34.01 -0.18 6.13 -141.29 -88.33 -1.53 -41.95zm-2.71 -74.79l149.5 93.38 -1.35 38.25 -0.81 1.35 -145.8 -91.03 -1.53 -41.95zm-2.62 -74.61l154.73 96.72 -1.44 38.52 -0.72 1.17 -151.12 -94.46 -1.44 -41.95zm-1.98 -75.97l159.33 99.51 -1.44 40.15 -157.16 -98.16 -1.44 -40.33 0.72 -1.17zm373.69 -216.35l366.84 -143.27c17.68,39.97 35.46,79.94 53.05,119.99 -4.15,51.61 -8.3,103.3 -12.54,154.91 -73.08,45.92 -146.43,91.3 -219.69,136.86l-77.95 -107.54 -110.97 -38.79 -111.06 38.61 -77.95 107.63c-73.17,-45.56 -146.61,-91.03 -219.6,-136.95 -4.33,-51.61 -8.39,-103.21 -12.63,-154.82 17.68,-40.06 35.37,-80.12 53.14,-120.08l369.36 143.45z"/>
    <polygon class="fil0" points="1068.66,677.01 1068.66,728.8 1053.5,728.8 1053.5,677.01 "/>
    <polygon class="fil0" points="1068.66,847.8 1068.66,899.59 1053.5,899.59 1053.5,847.8 "/>
    <polygon class="fil0" points="949.75,780.77 1001.63,780.77 1001.63,795.92 949.75,795.92 "/>
    <polygon class="fil0" points="1120.54,780.77 1172.41,780.77 1172.41,795.92 1120.54,795.92 "/>
    <polygon class="fil0" points="968.16,769.49 968.16,749.82 1022.56,695.33 1041.87,695.33 1041.87,710.49 1028.87,710.49 983.31,756.05 983.31,769.49 "/>
    <polygon class="fil0" points="1042.23,881.27 1022.56,881.27 968.16,826.78 968.16,807.56 983.31,807.56 983.31,820.55 1028.87,866.12 1042.23,866.12 "/>
    <polygon class="fil0" points="1154.82,807.29 1154.82,826.96 1100.33,881.45 1081.02,881.45 1081.02,866.3 1094.01,866.3 1139.66,820.64 1139.66,807.29 "/>
    <polygon class="fil0" points="1080.48,694.88 1100.15,694.88 1154.64,749.37 1154.64,768.68 1139.39,768.68 1139.39,755.69 1093.83,710.03 1080.48,710.03 "/>
   </g>
   <path class="fil0" d="M152.02 2020.49c-9.11,7.4 -18.77,12.54 -28.96,15.7 -10.19,3.07 -21.2,4.69 -32.93,4.69 -13.98,0 -26.62,-2.89 -37.71,-8.48 -11.19,-5.68 -20.57,-13.35 -28.42,-23.01 -7.76,-9.65 -13.71,-21.02 -17.77,-33.92 -4.15,-12.99 -6.23,-26.71 -6.23,-41.32 0,-13.62 1.8,-26.62 5.59,-38.98 3.7,-12.27 9.38,-23.1 17.05,-32.39 7.58,-9.29 17.23,-16.6 28.96,-22.01 11.64,-5.41 25.44,-8.12 41.41,-8.12 11.64,0 22.83,1.98 33.47,5.95 10.65,4.06 19.94,9.92 27.88,17.5l-20.12 23.64c-2.98,-1.98 -6.13,-3.88 -9.38,-5.68 -3.25,-1.8 -6.5,-3.43 -9.92,-4.78 -3.43,-1.35 -6.77,-2.44 -10.1,-3.25 -3.43,-0.81 -6.59,-1.26 -9.65,-1.26 -8.66,0 -15.88,1.8 -21.92,5.5 -6.04,3.7 -10.92,8.66 -14.8,14.89 -3.79,6.32 -6.5,13.62 -8.3,22.01 -1.71,8.39 -2.62,17.23 -2.62,26.62 0,5.5 0.36,11.19 1.17,16.96 0.72,5.86 1.89,11.55 3.52,17.14 1.53,5.59 3.61,10.83 6.04,15.7 2.53,4.87 5.5,9.2 8.84,12.9 3.43,3.7 7.31,6.68 11.64,8.84 4.33,2.17 9.2,3.25 14.62,3.25 3.07,0 6.13,-0.27 9.11,-0.81 2.98,-0.45 6.13,-1.26 9.47,-2.44 3.25,-1.08 6.86,-2.62 10.74,-4.42 3.88,-1.89 8.3,-4.15 13.17,-6.86l16.15 26.43zm99.96 20.39c-15.16,0 -28.69,-2.62 -40.78,-7.85 -12,-5.23 -22.19,-12.54 -30.67,-21.83 -8.39,-9.29 -14.8,-20.3 -19.31,-33.02 -4.51,-12.72 -6.77,-26.52 -6.77,-41.41 0,-14.98 2.17,-28.78 6.59,-41.5 4.33,-12.72 10.65,-23.73 18.95,-33.02 8.3,-9.29 18.4,-16.51 30.58,-21.74 12.09,-5.23 25.89,-7.85 41.41,-7.85 15.07,0 28.69,2.62 40.69,7.85 12.09,5.23 22.28,12.45 30.67,21.74 8.39,9.29 14.8,20.3 19.31,33.02 4.42,12.72 6.68,26.52 6.68,41.5 0,14.89 -2.17,28.69 -6.5,41.41 -4.42,12.72 -10.65,23.73 -18.95,33.02 -8.3,9.29 -18.5,16.6 -30.58,21.83 -12.09,5.23 -25.89,7.85 -41.32,7.85zm49.98 -100.23c0,-9.56 -0.9,-18.86 -2.8,-27.79 -1.8,-8.93 -4.69,-16.87 -8.75,-23.73 -4.06,-6.95 -9.38,-12.45 -15.79,-16.6 -6.41,-4.15 -14.25,-6.23 -23.46,-6.23 -8.75,0 -16.15,1.8 -22.46,5.41 -6.23,3.7 -11.28,8.57 -15.34,14.71 -3.97,6.13 -6.86,13.17 -8.66,21.11 -1.89,8.03 -2.8,16.24 -2.8,24.72 0,9.74 0.9,19.13 2.8,28.15 1.8,9.02 4.78,16.96 8.84,23.91 4.06,6.95 9.29,12.45 15.79,16.69 6.41,4.15 14.16,6.23 23.28,6.23 8.75,0 16.15,-1.89 22.37,-5.68 6.23,-3.79 11.37,-8.75 15.34,-14.89 4.06,-6.23 6.95,-13.26 8.84,-21.29 1.89,-7.94 2.8,-16.15 2.8,-24.72zm240.98 -109.35l0 207.24 -42.94 0 -56.75 -95 -20.12 -45.92 -0.81 0.18 5.23 47 0 93.74 -46.46 0 0 -171.42 -4.51 -31.4 48.36 -4.06 57.74 96.99 20.21 48.99 0.81 -0.18 -6.5 -49.71 0 -91.84 45.74 -4.6zm88.33 53.86l0 44.57 8.75 0c6.04,0 11.28,-0.99 15.79,-2.98 4.51,-1.98 8.21,-4.51 11.19,-7.76 2.89,-3.25 5.05,-7.13 6.5,-11.46 1.44,-4.33 2.17,-8.93 2.17,-13.71 0,-6.32 -0.99,-11.55 -3.16,-15.7 -2.08,-4.15 -4.87,-7.58 -8.21,-10.01 -3.34,-2.53 -7.13,-4.24 -11.28,-5.23 -4.24,-0.99 -8.39,-1.44 -12.45,-1.44 -1.8,0 -3.34,0 -4.42,0 -1.08,0 -1.98,0 -2.71,0 -0.81,0 -1.53,0 -2.17,0 -0.72,0.09 -1.44,0.18 -2.26,0.27l2.26 23.46zm6.41 76.87c-0.99,-1.26 -2.17,-2.08 -3.43,-2.26 -1.26,-0.27 -2.26,-0.36 -2.98,-0.36l0 79.12 -47.73 0 0 -171.33 -5.23 -29.86c4.15,-0.45 8.75,-0.9 13.89,-1.44 5.14,-0.45 10.38,-0.9 15.7,-1.26 5.41,-0.36 10.65,-0.63 15.79,-0.9 5.05,-0.18 9.56,-0.27 13.53,-0.27 12.45,0 23.73,1.17 33.92,3.7 10.19,2.44 18.95,6.13 26.25,11.1 7.22,4.96 12.9,11.1 16.96,18.31 3.97,7.31 5.95,15.7 5.95,25.26 0,9.74 -1.44,18.13 -4.51,25.17 -2.98,6.95 -7.13,12.99 -12.27,17.86 -5.14,4.96 -11.1,9.02 -17.86,12.18 -6.77,3.16 -13.8,5.77 -21.11,7.76l19.04 4.51 59.18 79.21 -49.98 0 -55.12 -76.51zm253.16 45.56l-3.61 30.95 -129.92 0 2.26 -31.31 0 -140.11 -4.69 -32.21 131 0 0 30.95 -80.66 0 2.08 18.77 0 29.59 69.56 0 0 28.96 -69.56 0 0 46.55 -1.17 17.86 84.72 0zm16.33 30.95l54.04 -174.31 4.78 -28.51 51.25 -4.15 65.05 206.97 -46.37 0 -15.79 -57.92 -53.23 0 -15.34 57.92 -44.39 0zm86.34 -184.77l-7.22 50.43 -11.37 46.64 37.17 0 -11.55 -46.64 -7.04 -50.43zm152.2 153.83l84.09 0 -3.7 30.95 -130.1 0 3.16 -31.49 0 -139.93 -4.6 -31.4 52.24 -4.15 0 158.16 -1.08 17.86zm101.59 30.95l0 -171.42 -4.51 -31.4 52.24 -4.15 0 206.97 -47.73 0zm121.71 0l0 -172.68 -53.41 0 0 -30.95 154.1 0 0 30.95 -52.96 0 0 172.68 -47.73 0zm176.92 -155.18l14.53 50.25 7.94 -50.25 24.63 -48.45 45.56 0 -58.82 115.39 0 88.24 -47.64 0 0 -88.24 -58.28 -114.31 46.01 -4.42 26.07 51.79z"/>
  </g>
 </g>
</svg>
