<?xml version="1.0" encoding="UTF-8"?>
<!DOCTYPE svg PUBLIC "-//W3C//DTD SVG 1.1//EN" "http://www.w3.org/Graphics/SVG/1.1/DTD/svg11.dtd">
<!-- Creator: CorelDRAW 2018 (64-Bit) -->
<svg xmlns="http://www.w3.org/2000/svg" xml:space="preserve" width="4.52507in" height="5.50812in" version="1.1" style="shape-rendering:geometricPrecision; text-rendering:geometricPrecision; image-rendering:optimizeQuality; fill-rule:evenodd; clip-rule:evenodd"
viewBox="0 0 469.51 571.51"
 xmlns:xlink="http://www.w3.org/1999/xlink">
 <defs>
  <style type="text/css">
   <![CDATA[
    .fil0 {fill:#222222}
    .fil1 {fill:#E60D2E}
    .fil2 {fill:#E60D2E;fill-rule:nonzero}
   ]]>
  </style>
 </defs>
 <g id="РЁРB0СЂ_x0020_1">
  <metadata id="CorelCorpID_0Corel-Layer"/>
  <polygon class="fil0" points="41.46,467.18 429.36,467.18 448.84,486.67 448.84,551.98 429.36,571.51 41.46,571.51 21.98,551.98 21.98,486.67 "/>
  <polygon class="fil0" points="137.54,0 234.76,0 331.97,0 400.72,68.75 469.51,137.5 469.51,234.71 469.51,331.97 400.76,400.72 331.97,469.47 234.76,469.47 137.54,469.47 68.75,400.72 -0,331.97 -0,234.71 -0,137.5 68.75,68.75 "/>
  <g id="_2187184703792">
   <path class="fil1" d="M20.18 208.49l0 -62.78 125.85 -125.85 64.74 0 0 20.47 -56.29 0 -113.84 113.88 0 54.29 -20.47 0 -0 0zm239.29 -188.64l64.5 0 125.85 125.85 0 62.78 -20.47 0 0 -54.29 -113.84 -113.88 -56.04 0 0 -20.47 -0 -0zm190.35 237.33l0 66.5 -125.85 125.85 -64.5 0 0 -20.47 56.04 0 113.84 -113.88 0 -58 20.47 0 0 -0zm-239.04 192.35l-64.74 0 -125.85 -125.85 0 -66.5 20.47 0 0 58 113.84 113.88 56.29 0 0 20.47 0 0z"/>
   <path class="fil1" d="M128.92 165.27l0.08 -0.16 0.04 -0.12c3.51,-11.48 4.62,-21.98 10.74,-56.41l95.71 -33.29 95.42 33.29c6.17,34.44 7.23,44.97 10.78,56.45l0.04 0.12 0.04 0.16c2.98,9.56 7.72,19.89 18.46,45.34l-3.96 59.6 -9.68 13.68 -3.51 68.34 -62.7 48.24 -90.07 0 -62.7 -48.24 -3.47 -68.38 -9.72 -13.68 -3.96 -59.6c10.78,-25.41 15.48,-35.78 18.46,-45.34zm204.98 172.05l-38.89 24.3 0.33 9.15 0.08 1.67 38.11 -23.81 0.37 -11.31zm0.74 -20.18l-40.32 25.16 0.37 10.33 0.25 0.37 39.3 -24.55 0.41 -11.31zm0.74 -20.14l-41.75 26.06 0.37 10.42 0.2 0.33 40.77 -25.49 0.41 -11.31zm0.53 -20.47l-42.97 26.84 0.37 10.82 42.4 -26.51 0.41 -10.87 -0.2 -0.29zm-199.01 60.78l38.89 24.3 -0.33 9.15 -0.04 1.67 -38.11 -23.81 -0.41 -11.31zm-0.74 -20.18l40.32 25.16 -0.37 10.33 -0.25 0.37 -39.3 -24.55 -0.41 -11.31zm-0.74 -20.14l41.75 26.06 -0.37 10.42 -0.2 0.33 -40.77 -25.49 -0.41 -11.31zm-0.53 -20.47l42.97 26.84 -0.37 10.82 -42.4 -26.51 -0.41 -10.87 0.2 -0.29zm100.81 -58.37l98.93 -38.64c4.78,10.78 9.56,21.57 14.3,32.35 -1.1,13.93 -2.21,27.86 -3.39,41.79 -19.69,12.38 -39.5,24.63 -59.23,36.93l-21.04 -29 -29.94 -10.46 -29.94 10.42 -21 29c-19.77,-12.3 -39.58,-24.55 -59.27,-36.93 -1.14,-13.93 -2.25,-27.86 -3.39,-41.79 4.78,-10.78 9.52,-21.57 14.34,-32.35l99.63 38.68 0 0z"/>
   <polygon class="fil1" points="302.52,202.48 302.52,216.45 298.44,216.45 298.44,202.48 "/>
   <polygon class="fil1" points="302.52,248.52 302.52,262.53 298.44,262.53 298.44,248.52 "/>
   <polygon class="fil1" points="270.46,230.43 284.47,230.43 284.47,234.55 270.46,234.55 "/>
   <polygon class="fil1" points="316.53,230.43 330.5,230.43 330.5,234.55 316.53,234.55 "/>
   <polygon class="fil1" points="275.4,227.4 275.4,222.09 290.1,207.43 295.29,207.43 295.29,211.51 291.82,211.51 279.52,223.81 279.52,227.4 "/>
   <polygon class="fil1" points="295.41,257.55 290.1,257.55 275.4,242.88 275.4,237.66 279.52,237.66 279.52,241.17 291.82,253.46 295.41,253.46 "/>
   <polygon class="fil1" points="325.77,237.61 325.77,242.93 311.06,257.59 305.87,257.59 305.87,253.5 309.38,253.5 321.68,241.21 321.68,237.61 "/>
   <polygon class="fil1" points="305.71,207.31 311.02,207.31 325.72,221.97 325.72,227.2 321.64,227.2 321.64,223.69 309.34,211.39 305.71,211.39 "/>
  </g>
  <g id="_1967542064048">
   <path class="fil2" d="M81.62 538.29c-2.11,1.69 -4.33,2.89 -6.68,3.61 -2.35,0.72 -4.88,1.08 -7.59,1.08 -3.23,0 -6.13,-0.66 -8.7,-1.96 -2.57,-1.3 -4.75,-3.07 -6.54,-5.3 -1.79,-2.23 -3.16,-4.84 -4.11,-7.82 -0.95,-2.98 -1.43,-6.15 -1.43,-9.51 0,-3.15 0.43,-6.14 1.28,-8.98 0.86,-2.84 2.17,-5.33 3.93,-7.47 1.76,-2.14 3.98,-3.83 6.68,-5.08 2.69,-1.25 5.87,-1.88 9.54,-1.88 2.69,0 5.27,0.46 7.72,1.39 2.45,0.93 4.59,2.27 6.43,4.03l-4.63 5.44c-0.69,-0.46 -1.41,-0.9 -2.16,-1.31 -0.75,-0.42 -1.51,-0.78 -2.29,-1.1 -0.78,-0.31 -1.56,-0.56 -2.34,-0.75 -0.77,-0.19 -1.51,-0.28 -2.22,-0.28 -1.98,0 -3.66,0.42 -5.05,1.26 -1.39,0.85 -2.52,1.99 -3.4,3.44 -0.88,1.45 -1.51,3.14 -1.92,5.07 -0.41,1.93 -0.62,3.97 -0.62,6.12 0,1.27 0.09,2.58 0.27,3.92 0.18,1.35 0.45,2.66 0.81,3.94 0.37,1.28 0.83,2.49 1.41,3.62 0.57,1.13 1.25,2.12 2.03,2.97 0.78,0.85 1.67,1.53 2.67,2.03 1,0.5 2.13,0.75 3.38,0.75 0.71,0 1.41,-0.06 2.1,-0.18 0.69,-0.11 1.42,-0.3 2.18,-0.56 0.76,-0.26 1.59,-0.6 2.48,-1.03 0.9,-0.43 1.91,-0.95 3.04,-1.57l3.72 6.1z"/>
   <path id="1" class="fil2" d="M104.65 542.98c-3.48,0 -6.61,-0.6 -9.39,-1.81 -2.77,-1.21 -5.13,-2.89 -7.07,-5.03 -1.94,-2.14 -3.42,-4.67 -4.45,-7.6 -1.03,-2.93 -1.55,-6.11 -1.55,-9.55 0,-3.44 0.5,-6.63 1.5,-9.56 1,-2.93 2.46,-5.47 4.37,-7.6 1.91,-2.14 4.26,-3.81 7.05,-5.02 2.8,-1.21 5.98,-1.81 9.54,-1.81 3.48,0 6.61,0.6 9.39,1.81 2.77,1.21 5.13,2.88 7.06,5.02 1.93,2.14 3.41,4.67 4.44,7.6 1.03,2.93 1.54,6.12 1.54,9.56 0,3.44 -0.5,6.62 -1.5,9.55 -1,2.93 -2.45,5.47 -4.36,7.6 -1.91,2.14 -4.26,3.82 -7.04,5.03 -2.79,1.21 -5.97,1.81 -9.53,1.81zm11.52 -23.09c0,-2.21 -0.21,-4.35 -0.63,-6.41 -0.42,-2.06 -1.1,-3.89 -2.03,-5.48 -0.94,-1.59 -2.15,-2.86 -3.63,-3.82 -1.48,-0.96 -3.29,-1.44 -5.41,-1.44 -2,0 -3.72,0.42 -5.16,1.26 -1.44,0.84 -2.62,1.97 -3.54,3.38 -0.92,1.41 -1.59,3.04 -2.01,4.87 -0.43,1.84 -0.65,3.73 -0.65,5.69 0,2.25 0.22,4.41 0.65,6.49 0.43,2.08 1.11,3.91 2.04,5.51 0.94,1.6 2.15,2.88 3.63,3.84 1.48,0.96 3.28,1.44 5.38,1.44 2,0 3.72,-0.44 5.15,-1.3 1.43,-0.87 2.61,-2.01 3.54,-3.44 0.93,-1.43 1.61,-3.06 2.03,-4.89 0.43,-1.84 0.64,-3.73 0.64,-5.69z"/>
   <polygon id="2" class="fil2" points="171.71,494.67 171.71,542.45 161.82,542.45 148.74,520.55 144.11,509.97 143.92,510 145.11,520.83 145.11,542.45 134.41,542.45 134.41,502.93 133.38,495.7 144.52,494.76 157.82,517.1 162.48,528.4 162.67,528.37 161.17,516.92 161.17,495.73 "/>
   <path id="3" class="fil2" d="M193.55 524.8c-0.23,-0.29 -0.49,-0.47 -0.78,-0.52 -0.29,-0.05 -0.52,-0.07 -0.69,-0.07l0 18.24 -11.01 0 0 -39.49 -1.19 -6.88c0.94,-0.1 2,-0.22 3.19,-0.33 1.19,-0.11 2.4,-0.21 3.63,-0.29 1.23,-0.08 2.44,-0.16 3.62,-0.21 1.18,-0.05 2.22,-0.07 3.14,-0.07 2.86,0 5.47,0.28 7.81,0.86 2.35,0.57 4.36,1.43 6.04,2.57 1.68,1.14 2.98,2.54 3.91,4.22 0.93,1.68 1.39,3.62 1.39,5.81 0,2.25 -0.34,4.18 -1.04,5.8 -0.7,1.62 -1.65,2.99 -2.84,4.13 -1.19,1.14 -2.56,2.08 -4.11,2.81 -1.55,0.73 -3.18,1.32 -4.87,1.78l4.38 1.03 13.64 18.27 -11.52 0 -12.7 -17.65zm-1.47 -17.71l0 10.26 2 0c1.4,0 2.62,-0.23 3.65,-0.68 1.03,-0.45 1.89,-1.04 2.57,-1.79 0.68,-0.75 1.18,-1.63 1.51,-2.63 0.33,-1 0.5,-2.05 0.5,-3.16 0,-1.46 -0.24,-2.67 -0.73,-3.63 -0.49,-0.96 -1.13,-1.73 -1.9,-2.31 -0.77,-0.57 -1.64,-0.97 -2.61,-1.2 -0.97,-0.23 -1.93,-0.34 -2.87,-0.34l-1.66 0c-0.17,0 -0.32,0 -0.48,0.01 -0.16,0.01 -0.33,0.03 -0.52,0.05l0.53 5.41z"/>
   <polygon id="4" class="fil2" points="251.91,535.32 251.07,542.45 221.12,542.45 221.65,535.22 221.65,502.93 220.56,495.51 250.75,495.51 250.75,502.65 232.17,502.65 232.63,506.97 232.63,513.79 248.69,513.79 248.69,520.45 232.63,520.45 232.63,531.19 232.38,535.32 "/>
   <path id="5" class="fil2" d="M255.67 542.45l12.45 -40.18 1.1 -6.57 11.83 -0.97 14.99 47.72 -10.7 0 -3.63 -13.36 -12.27 0 -3.54 13.36 -10.23 0zm19.9 -42.59l-1.66 11.61 -2.63 10.76 8.57 0 -2.66 -10.76 -1.63 -11.61z"/>
   <polygon id="6" class="fil2" points="310.64,535.32 330.01,535.32 329.17,542.45 299.19,542.45 299.91,535.19 299.91,502.93 298.85,495.7 310.89,494.73 310.89,531.19 "/>
   <polygon id="7" class="fil2" points="334.05,542.45 334.05,502.93 333.02,495.7 345.06,494.73 345.06,542.45 "/>
   <polygon id="8" class="fil2" points="362.12,542.45 362.12,502.65 349.79,502.65 349.79,495.51 385.3,495.51 385.3,502.65 373.1,502.65 373.1,542.45 "/>
   <polygon id="9" class="fil2" points="402.89,506.68 406.24,518.26 408.05,506.68 413.75,495.51 424.23,495.51 410.68,522.11 410.68,542.45 399.7,542.45 399.7,522.11 386.27,495.76 396.88,494.73 "/>
  </g>
 </g>
</svg>
