<?xml version="1.0" encoding="UTF-8"?>
<!DOCTYPE svg PUBLIC "-//W3C//DTD SVG 1.1//EN" "http://www.w3.org/Graphics/SVG/1.1/DTD/svg11.dtd">
<!-- Creator: CorelDRAW 2018 (64-Bit) -->
<svg xmlns="http://www.w3.org/2000/svg" xml:space="preserve" width="2000px" height="2000px" version="1.1" style="shape-rendering:geometricPrecision; text-rendering:geometricPrecision; image-rendering:optimizeQuality; fill-rule:evenodd; clip-rule:evenodd"
viewBox="0 0 31056000 31056000"
 xmlns:xlink="http://www.w3.org/1999/xlink">
 <defs>
  <style type="text/css">
   <![CDATA[
    .fil0 {fill:white;fill-rule:nonzero}
   ]]>
  </style>
 </defs>
 <g id="Layer_x0020_1">
  <metadata id="CorelCorpID_0Corel-Layer"/>
  <path class="fil0" d="M23610000 16550000c-3000,58000 -34000,110000 -83000,140000l-4149000 2547000c-80000,49000 -185000,27000 -237000,-51000l-1341000 -1997000c-22000,-33000 -54000,-58000 -92000,-70000l-2058000 -657000c-79000,-26000 -165000,-26000 -244000,0l-2058000 657000c-38000,12000 -70000,37000 -92000,70000l-1340000 1997000c-53000,78000 -158000,100000 -238000,51000l-4149000 -2547000c-49000,-30000 -80000,-82000 -83000,-140000l-158000 -2914000c-2000,-30000 4000,-59000 17000,-85000l1035000 -2165000c39000,-83000 136000,-121000 221000,-88000l6822000 2638000c93000,36000 197000,36000 290000,0l6822000 -2638000c85000,-33000 182000,5000 222000,88000l1034000 2165000c13000,26000 19000,55000 17000,85000l-158000 2914000zm-10624000 14506000l-4385000 0c-47000,0 -92000,-19000 -126000,-52000l-8423000 -8423000c-33000,-34000 -52000,-79000 -52000,-126000l0 -4385000c0,-98000 80000,-178000 178000,-178000l1522000 0c98000,0 178000,80000 178000,178000l0 3607000c0,47000 19000,92000 52000,126000l7323000 7323000c34000,33000 79000,52000 126000,52000l3607000 0c98000,0 178000,80000 178000,178000l0 1522000c0,98000 -80000,178000 -178000,178000zm9469000 0l-4385000 0c-98000,0 -178000,-80000 -178000,-178000l0 -1522000c0,-98000 80000,-178000 178000,-178000l3607000 0c47000,0 92000,-19000 126000,-52000l7323000 -7323000c33000,-34000 52000,-79000 52000,-126000l0 -3607000c0,-98000 80000,-178000 178000,-178000l1522000 0c98000,0 178000,80000 178000,178000l0 4385000c0,47000 -19000,92000 -52000,126000l-8423000 8423000c-34000,33000 -79000,52000 -126000,52000zm8423000 -17892000l-1522000 0c-98000,0 -178000,-80000 -178000,-178000l0 -3607000c0,-47000 -19000,-93000 -52000,-126000l-7323000 -7323000c-34000,-33000 -79000,-52000 -126000,-52000l-3607000 0c-98000,0 -178000,-80000 -178000,-178000l0 -1522000c0,-98000 80000,-178000 178000,-178000l4385000 0c47000,0 92000,19000 126000,52000l8423000 8423000c33000,34000 52000,79000 52000,126000l0 4385000c0,98000 -80000,178000 -178000,178000zm-29178000 0l-1522000 0c-98000,0 -178000,-80000 -178000,-178000l0 -4385000c0,-47000 19000,-92000 52000,-126000l8423000 -8423000c34000,-33000 79000,-52000 126000,-52000l4385000 0c98000,0 178000,80000 178000,178000l0 1522000c0,98000 -80000,178000 -178000,178000l-3607000 0c-47000,0 -92000,19000 -126000,52000l-7323000 7323000c-33000,33000 -52000,79000 -52000,126000l0 3607000c0,98000 -79000,178000 -178000,178000zm19990000 2692000l-695000 695000c-10000,10000 -24000,15000 -38000,15000l-328000 0c-30000,0 -54000,-23000 -54000,-53000l0 -488000c0,-30000 -24000,-54000 -53000,-54000l-288000 0c-30000,0 -54000,24000 -54000,54000l0 488000c0,30000 -24000,53000 -54000,53000l-328000 0c-14000,0 -27000,-5000 -37000,-15000l-695000 -695000c-10000,-10000 -16000,-23000 -16000,-38000l0 -328000c0,-29000 24000,-53000 54000,-53000l488000 0c30000,0 54000,-24000 54000,-54000l0 -288000c0,-30000 -24000,-54000 -54000,-54000l-488000 0c-30000,0 -54000,-24000 -54000,-53000l0 -328000c0,-15000 6000,-28000 16000,-38000l695000 -695000c10000,-10000 23000,-15000 37000,-15000l328000 0c30000,0 54000,23000 54000,53000l0 488000c0,30000 24000,54000 54000,54000l288000 0c29000,0 53000,-24000 53000,-54000l0 -488000c0,-30000 24000,-53000 54000,-53000l328000 0c14000,0 28000,5000 38000,15000l695000 695000c10000,10000 15000,23000 15000,38000l0 328000c0,29000 -24000,53000 -53000,53000l-489000 0c-29000,0 -53000,24000 -53000,54000l0 288000c0,30000 24000,54000 53000,54000l489000 0c29000,0 53000,24000 53000,53000l0 328000c0,15000 -5000,28000 -15000,38000zm953000 -815000l-489000 0c-29000,0 -53000,-24000 -53000,-53000l0 -492000c0,-14000 -6000,-28000 -16000,-38000l-926000 -926000c-10000,-10000 -24000,-16000 -38000,-16000l-492000 0c-30000,0 -54000,-24000 -54000,-53000l0 -489000c0,-29000 -24000,-53000 -53000,-53000l-288000 0c-30000,0 -54000,24000 -54000,53000l0 489000c0,29000 -24000,53000 -54000,53000l-491000 0c-15000,0 -28000,6000 -38000,16000l-926000 926000c-10000,10000 -16000,24000 -16000,38000l0 492000c0,29000 -24000,53000 -54000,53000l-488000 0c-29000,0 -54000,24000 -54000,54000l0 288000c0,30000 25000,54000 54000,54000l488000 0c30000,0 54000,24000 54000,53000l0 492000c0,15000 6000,28000 16000,38000l926000 926000c10000,10000 23000,16000 38000,16000l491000 0c30000,0 54000,24000 54000,53000l0 489000c0,29000 24000,53000 54000,53000l288000 0c29000,0 53000,-24000 53000,-53000l0 -489000c0,-29000 24000,-53000 54000,-53000l492000 0c14000,0 28000,-6000 38000,-16000l926000 -926000c10000,-10000 16000,-23000 16000,-38000l0 -492000c0,-29000 24000,-53000 53000,-53000l489000 0c29000,0 53000,-24000 53000,-54000l0 -288000c0,-30000 -24000,-54000 -53000,-54000zm226000 4198000c0,58000 -30000,113000 -78000,145000l-2972000 1996000c-72000,48000 -167000,-3000 -167000,-89000l0 -957000c0,-59000 29000,-113000 77000,-146000l3021000 -2028000c50000,-34000 119000,2000 119000,63000l0 1016000zm0 2090000c0,58000 -30000,113000 -78000,145000l-2968000 1993000c-73000,50000 -171000,-3000 -171000,-90000l0 -953000c0,-59000 29000,-113000 77000,-146000l3017000 -2025000c52000,-36000 123000,2000 123000,65000l0 1011000zm0 2090000c0,58000 -30000,113000 -78000,146000l-2968000 1993000c-73000,49000 -171000,-4000 -171000,-91000l0 -953000c0,-59000 29000,-113000 77000,-146000l3017000 -2025000c52000,-36000 123000,2000 123000,65000l0 1011000zm-11465000 -2128000c0,86000 -95000,137000 -167000,89000l-2972000 -1996000c-48000,-32000 -77000,-87000 -77000,-145000l0 -1016000c0,-61000 68000,-97000 118000,-63000l3021000 2028000c48000,33000 77000,87000 77000,146000l0 957000zm0 2086000c0,87000 -98000,140000 -171000,90000l-2968000 -1993000c-48000,-32000 -77000,-87000 -77000,-145000l0 -1011000c0,-63000 70000,-101000 122000,-65000l3017000 2025000c48000,33000 77000,87000 77000,146000l0 953000zm0 2090000c0,87000 -98000,140000 -171000,91000l-2968000 -1993000c-48000,-33000 -77000,-88000 -77000,-146000l0 -1011000c0,-63000 70000,-101000 122000,-65000l3017000 2025000c48000,33000 77000,87000 77000,146000l0 953000zm13195000 -12054000l-1406000 -2961000c-6000,-14000 -11000,-28000 -14000,-43000l-766000 -4182000c-11000,-61000 -55000,-112000 -114000,-133000l-6635000 -2381000c-88000,-32000 -184000,-32000 -272000,0l-6635000 2381000c-59000,21000 -102000,72000 -114000,133000l-766000 4182000c-3000,15000 -7000,29000 -14000,43000l-1406000 2961000c-13000,26000 -18000,54000 -17000,83000l198000 4301000c2000,39000 16000,76000 41000,105000l766000 904000c26000,30000 40000,68000 41000,107000l165000 5298000c1000,51000 25000,99000 65000,131000l4327000 2910000c32000,25000 71000,39000 111000,39000l3374000 0 3375000 0c40000,0 78000,-14000 110000,-39000l4327000 -2910000c40000,-32000 64000,-80000 66000,-131000l164000 -5298000c1000,-39000 15000,-77000 41000,-107000l766000 -904000c25000,-29000 39000,-66000 41000,-105000l198000 -4301000c1000,-29000 -4000,-57000 -17000,-83000z"/>
 </g>
</svg>
