<?xml version="1.0" encoding="UTF-8"?>
<!DOCTYPE svg PUBLIC "-//W3C//DTD SVG 1.1//EN" "http://www.w3.org/Graphics/SVG/1.1/DTD/svg11.dtd">
<!-- Creator: CorelDRAW 2018 (64-Bit) -->
<svg xmlns="http://www.w3.org/2000/svg" xml:space="preserve" width="6000px" height="2121px" version="1.1" style="shape-rendering:geometricPrecision; text-rendering:geometricPrecision; image-rendering:optimizeQuality; fill-rule:evenodd; clip-rule:evenodd"
viewBox="0 0 196071000 69302000"
 xmlns:xlink="http://www.w3.org/1999/xlink">
 <defs>
  <style type="text/css">
   <![CDATA[
    .fil0 {fill:white;fill-rule:nonzero}
   ]]>
  </style>
 </defs>
 <g id="Layer_x0020_1">
  <metadata id="CorelCorpID_0Corel-Layer"/>
  <path class="fil0" d="M32131000 36171000c-4000,78000 -47000,149000 -113000,190000l-5647000 3467000c-109000,66000 -251000,35000 -322000,-71000l-1825000 -2718000c-29000,-44000 -74000,-78000 -125000,-94000l-2801000 -895000c-108000,-35000 -224000,-35000 -333000,0l-2800000 895000c-51000,16000 -95000,50000 -125000,94000l-1824000 2718000c-72000,106000 -214000,137000 -323000,71000l-5647000 -3467000c-67000,-41000 -109000,-112000 -114000,-191000l-214000 -3966000c-2000,-39000 6000,-79000 23000,-115000l1409000 -2947000c53000,-112000 184000,-165000 301000,-119000l9284000 3590000c127000,49000 268000,49000 395000,0l9284000 -3590000c116000,-46000 247000,7000 301000,119000l1408000 2947000c17000,36000 25000,76000 23000,115000l-215000 3967000zm25035000 -36171000l0 69302000 -1019000 0 0 -69302000 1019000 0zm138815000 44096000l-3186000 0c-1331000,0 -2025000,-332000 -2640000,-1086000l-3268000 -3975000c-212000,-265000 -345000,-312000 -715000,-312000l-258000 0 0 5376000 -2685000 0 0 -7363000 3065000 0c1342000,0 2014000,303000 2674000,1086000l3334000 3982000c213000,257000 370000,304000 717000,304000l265000 0 0 -5377000 2696000 0 1000 7365000zm-23591000 -5373000c-783000,0 -1175000,211000 -1175000,634000l0 2124000c0,415000 392000,626000 1175000,626000l5795000 0c784000,0 1176000,-211000 1176000,-626000l0 -2124000c0,-423000 -392000,-634000 -1176000,-634000l-5795000 0zm9723000 3036000c0,1555000 -1119000,2337000 -3368000,2337000l-6915000 0c-2249000,0 -3368000,-782000 -3368000,-2337000l0 -2677000c0,-1564000 1119000,-2346000 3368000,-2346000l6914000 0c2249000,0 3368000,782000 3368000,2346000l1000 2677000zm-14768000 2337000l-2741000 0 0 -7360000 2741000 0 0 7360000zm-3856000 -5373000l-4855000 0 0 5376000 -2738000 0 0 -5376000 -4946000 0 0 -1987000 12545000 0 -6000 1987000zm-17597000 9000c-213000,0 -312000,74000 -436000,248000l-1287000 1925000 3938000 0 -1286000 -1932000c-89000,-150000 -251000,-241000 -425000,-238000l-504000 -3000zm7418000 5364000l-3119000 0 -884000 -1316000 -6333000 0 -872000 1316000 -3088000 0 4677000 -6734000c302000,-452000 570000,-626000 1342000,-626000l2257000 0c671000,0 1018000,156000 1343000,626000l4677000 6734000zm-25047000 -5373000l0 3385000 7162000 0c783000,0 1174000,-211000 1174000,-625000l0 -2124000c0,-423000 -391000,-635000 -1174000,-635000l-7162000 -1000zm11088000 3036000c0,1555000 -1119000,2337000 -3368000,2337000l-10461000 0 0 -7360000 10461000 0c2249000,0 3368000,782000 3368000,2346000l0 2677000zm-14943000 2337000l-3186000 0c-1331000,0 -2025000,-332000 -2641000,-1086000l-3267000 -3975000c-213000,-265000 -346000,-312000 -716000,-312000l-257000 0 0 5376000 -2688000 0 0 -7363000 3065000 0c1343000,0 2014000,303000 2675000,1086000l3333000 3982000c213000,257000 370000,304000 717000,304000l271000 0 0 -5377000 2696000 0 -2000 7365000zm-13870000 -1785000c0,1187000 -894000,1785000 -2696000,1785000l-7854000 0c-1802000,0 -2696000,-597000 -2696000,-1803000l0 -5557000 2741000 0 0 5098000c0,183000 168000,275000 515000,275000l6734000 0c333000,0 505000,-83000 505000,-257000l0 -5116000 2751000 0 0 5575000zm-24084000 -3588000c-782000,0 -1174000,211000 -1175000,634000l0 2124000c0,415000 392000,626000 1175000,626000l5796000 0c783000,0 1174000,-211000 1174000,-626000l0 -2124000c0,-423000 -391000,-634000 -1174000,-634000l-5796000 0zm9723000 3036000c0,1555000 -1119000,2337000 -3368000,2337000l-6915000 0c-2248000,0 -3367000,-782000 -3367000,-2337000l0 -2677000c0,-1564000 1119000,-2346000 3367000,-2346000l6915000 0c2249000,0 3368000,782000 3368000,2346000l0 2677000zm-14619000 -3036000l-9175000 0c-336000,0 -504000,119000 -504000,359000l0 616000 9613000 0 0 1991000 -9613000 0 0 2410000 -2752000 0 0 -5566000c0,-1195000 895000,-1792000 2697000,-1792000l9734000 0 0 1982000zm110025000 -8117000l0 2448000 -2752000 0 0 -2429000 -4554000 -4932000 3156000 0 2752000 3096000 2841000 -3092000 3045000 0 -4488000 4909000zm-7860000 -2926000l-4857000 0 0 5377000 -2741000 0 0 -5377000 -4945000 0 0 -1986000 12545000 0 -2000 1986000zm-13661000 5373000l-2741000 0 0 -7360000 2741000 0 0 7360000zm-3632000 1000l-9757000 0c-1800000,0 -2696000,-598000 -2696000,-1785000l0 -5575000 2752000 0 0 5023000c0,230000 168000,349000 504000,349000l9197000 0 0 1988000zm-19956000 -5364000c-213000,0 -313000,74000 -436000,248000l-1287000 1925000 3939000 0 -1287000 -1933000c-89000,-150000 -252000,-241000 -426000,-239000l-503000 -1000zm7419000 5363000l-3120000 0 -884000 -1315000 -6333000 0 -872000 1315000 -3088000 0 4677000 -6734000c302000,-450000 570000,-626000 1342000,-626000l2257000 0c671000,0 1018000,157000 1343000,626000l4678000 6734000zm-14811000 -5464000l-9286000 0c-335000,0 -503000,119000 -503000,359000l0 524000 9722000 0 0 1766000 -9722000 0 0 553000c0,248000 168000,368000 503000,368000l9320000 0 0 1895000 -9879000 0c-1802000,0 -2697000,-598000 -2697000,-1803000l0 -3764000c0,-1194000 895000,-1792000 2697000,-1792000l9845000 0 0 1894000zm-24084000 9000l0 975000 7485000 0c291000,0 437000,-101000 437000,-295000l0 -398000c0,-193000 -168000,-285000 -503000,-285000l-7419000 3000zm10584000 818000c0,1243000 -782000,1868000 -2338000,1868000l-626000 0 3344000 2769000 -3568000 0 -3119000 -2676000 -4277000 0 0 2676000 -2740000 0 0 -7360000 10740000 0c1726000,0 2587000,598000 2584000,1793000l0 930000zm-14440000 4638000l-3186000 0c-1331000,0 -2025000,-332000 -2641000,-1086000l-3269000 -3976000c-213000,-266000 -346000,-313000 -716000,-313000l-258000 0 0 5377000 -2685000 0 0 -7362000 3066000 0c1342000,0 2014000,303000 2674000,1085000l3334000 3982000c212000,258000 369000,304000 717000,304000l265000 0 0 -5377000 2696000 0 3000 7366000zm-23592000 -5374000c-783000,0 -1175000,212000 -1175000,635000l0 2124000c0,414000 392000,625000 1175000,625000l5796000 0c783000,0 1175000,-211000 1175000,-625000l0 -2124000c0,-423000 -392000,-634000 -1175000,-635000l-5796000 0zm9723000 3037000c0,1555000 -1119000,2337000 -3368000,2337000l-6915000 0c-2248000,0 -3367000,-782000 -3367000,-2337000l0 -2677000c0,-1564000 1119000,-2346000 3367000,-2346000l6913000 0c2250000,0 3369000,782000 3369000,2346000l1000 2677000zm-14798000 -3037000l-9625000 0c-335000,0 -502000,120000 -503000,360000l0 2658000c0,249000 168000,368000 503000,368000l9658000 0 0 1988000 -10214000 0c-1802000,0 -2697000,-598000 -2697000,-1803000l0 -3764000c0,-1194000 895000,-1791000 2697000,-1791000l10181000 0 0 1984000zm-64803000 28232000l-5967000 0c-64000,0 -126000,-26000 -171000,-72000l-11463000 -11463000c-46000,-44000 -71000,-106000 -71000,-171000l0 -5966000c0,-134000 108000,-243000 242000,-243000l2072000 0c133000,0 242000,109000 242000,243000l0 4908000c0,64000 25000,126000 71000,171000l9966000 9966000c45000,45000 107000,71000 171000,71000l4908000 0c134000,0 242000,108000 242000,242000l0 2071000c0,134000 -108000,243000 -242000,243000zm12887000 0l-5967000 0c-134000,0 -242000,-109000 -242000,-243000l0 -2071000c0,-134000 108000,-242000 242000,-242000l4908000 0c64000,0 126000,-26000 172000,-71000l9965000 -9966000c46000,-45000 71000,-107000 71000,-171000l0 -4908000c0,-134000 109000,-243000 243000,-243000l2071000 0c134000,0 242000,109000 242000,243000l0 5966000c0,65000 -25000,127000 -71000,171000l-11463000 11463000c-45000,46000 -107000,72000 -171000,72000zm11463000 -24350000l-2071000 0c-134000,0 -243000,-109000 -243000,-243000l0 -4908000c0,-64000 -25000,-126000 -71000,-171000l-9965000 -9966000c-46000,-46000 -108000,-70000 -172000,-70000l-4908000 0c-134000,0 -242000,-109000 -242000,-243000l0 -2071000c0,-134000 108000,-243000 242000,-243000l5967000 0c64000,0 126000,26000 171000,71000l11463000 11464000c46000,45000 71000,106000 71000,171000l0 5966000c0,134000 -108000,243000 -242000,243000zm-39709000 0l-2071000 0c-134000,0 -242000,-109000 -242000,-243000l0 -5966000c0,-65000 25000,-126000 71000,-171000l11463000 -11464000c45000,-45000 107000,-71000 172000,-71000l5966000 0c134000,0 242000,109000 242000,243000l0 2071000c0,134000 -108000,243000 -242000,243000l-4908000 0c-64000,0 -126000,24000 -171000,70000l-9966000 9966000c-46000,45000 -71000,107000 -71000,171000l0 4908000c0,134000 -109000,243000 -243000,243000zm27204000 3664000l-945000 946000c-13000,13000 -32000,21000 -52000,21000l-446000 0c-40000,0 -73000,-33000 -73000,-73000l0 -665000c0,-40000 -32000,-72000 -73000,-72000l-392000 0c-41000,0 -73000,32000 -73000,72000l0 665000c0,40000 -33000,73000 -73000,73000l-446000 0c-20000,0 -38000,-8000 -52000,-21000l-945000 -946000c-14000,-13000 -22000,-32000 -22000,-51000l0 -447000c0,-40000 33000,-73000 74000,-73000l664000 0c41000,0 73000,-32000 73000,-73000l0 -392000c0,-40000 -32000,-73000 -73000,-73000l-664000 0c-41000,0 -74000,-32000 -74000,-73000l0 -446000c0,-19000 8000,-38000 22000,-52000l945000 -945000c14000,-14000 32000,-21000 52000,-21000l446000 0c40000,0 73000,32000 73000,73000l0 664000c0,41000 32000,73000 73000,73000l392000 0c41000,0 73000,-32000 73000,-73000l0 -664000c0,-41000 33000,-73000 73000,-73000l446000 0c20000,0 39000,7000 52000,21000l945000 945000c14000,14000 22000,33000 22000,52000l0 446000c0,41000 -33000,73000 -74000,73000l-664000 0c-40000,0 -73000,33000 -73000,73000l0 392000c0,41000 33000,73000 73000,73000l664000 0c41000,0 74000,33000 74000,73000l0 447000c0,19000 -8000,38000 -22000,51000zm1297000 -1109000l-664000 0c-41000,0 -73000,-32000 -73000,-73000l0 -669000c0,-19000 -8000,-38000 -21000,-51000l-1261000 -1261000c-13000,-14000 -32000,-21000 -51000,-21000l-670000 0c-40000,0 -73000,-33000 -73000,-73000l0 -665000c0,-40000 -32000,-73000 -73000,-73000l-392000 0c-41000,0 -73000,33000 -73000,73000l0 665000c0,40000 -33000,73000 -73000,73000l-669000 0c-19000,0 -38000,7000 -52000,21000l-1260000 1261000c-14000,13000 -21000,32000 -21000,51000l0 669000c0,41000 -33000,73000 -74000,73000l-664000 0c-41000,0 -73000,33000 -73000,73000l0 392000c0,41000 32000,73000 73000,73000l664000 0c41000,0 74000,33000 74000,73000l0 669000c0,20000 7000,39000 21000,52000l1260000 1261000c14000,14000 33000,21000 52000,21000l669000 0c40000,0 73000,33000 73000,73000l0 665000c0,40000 32000,72000 73000,72000l392000 0c41000,0 73000,-32000 73000,-72000l0 -665000c0,-40000 33000,-73000 73000,-73000l670000 0c19000,0 38000,-7000 51000,-21000l1261000 -1261000c13000,-13000 21000,-32000 21000,-52000l0 -669000c0,-40000 32000,-73000 73000,-73000l664000 0c41000,0 73000,-32000 73000,-73000l0 -392000c0,-40000 -32000,-73000 -73000,-73000zm308000 5713000c0,79000 -40000,153000 -105000,197000l-4046000 2717000c-97000,65000 -227000,-4000 -227000,-122000l0 -1303000c0,-79000 40000,-153000 105000,-197000l4111000 -2761000c69000,-46000 162000,3000 162000,87000l0 1382000zm0 2844000c0,79000 -40000,154000 -105000,198000l-4040000 2713000c-100000,66000 -233000,-5000 -233000,-125000l0 -1296000c0,-79000 40000,-153000 105000,-198000l4105000 -2757000c72000,-48000 168000,3000 168000,89000l0 1376000zm0 2845000c0,79000 -40000,153000 -105000,197000l-4040000 2713000c-100000,66000 -233000,-4000 -233000,-124000l0 -1297000c0,-79000 40000,-153000 105000,-197000l4105000 -2757000c72000,-48000 168000,2000 168000,88000l0 1377000zm-15602000 -2897000c0,118000 -130000,187000 -227000,122000l-4045000 -2717000c-66000,-44000 -105000,-118000 -105000,-197000l0 -1382000c0,-84000 92000,-133000 161000,-87000l4111000 2761000c66000,44000 105000,118000 105000,197000l0 1303000zm0 2838000c0,120000 -133000,191000 -232000,125000l-4040000 -2713000c-66000,-44000 -105000,-119000 -105000,-198000l0 -1376000c0,-86000 95000,-137000 166000,-89000l4106000 2757000c66000,45000 105000,119000 105000,198000l0 1296000zm0 2845000c0,120000 -133000,190000 -232000,124000l-4040000 -2713000c-66000,-44000 -105000,-118000 -105000,-197000l0 -1377000c0,-86000 95000,-136000 166000,-88000l4106000 2757000c66000,44000 105000,118000 105000,197000l0 1297000zm17958000 -16404000l-1914000 -4029000c-9000,-19000 -16000,-39000 -19000,-59000l-1043000 -5691000c-16000,-84000 -75000,-152000 -155000,-181000l-9030000 -3241000c-120000,-42000 -250000,-42000 -370000,0l-9030000 3241000c-80000,29000 -139000,97000 -154000,181000l-1044000 5691000c-3000,20000 -10000,40000 -18000,59000l-1914000 4029000c-17000,35000 -25000,74000 -23000,113000l269000 5854000c3000,53000 22000,103000 57000,143000l1042000 1230000c35000,40000 54000,92000 57000,145000l222000 7211000c3000,69000 35000,134000 89000,177000l5890000 3961000c42000,34000 95000,52000 150000,52000l4592000 0 4592000 0c55000,0 108000,-18000 150000,-52000l5890000 -3961000c54000,-43000 86000,-108000 89000,-177000l223000 -7211000c2000,-53000 22000,-105000 56000,-145000l1043000 -1230000c33000,-40000 53000,-90000 56000,-143000l270000 -5854000c1000,-39000 -7000,-78000 -23000,-113000z"/>
 </g>
</svg>
